RedHatMonoVF-BoldItalic.ufo
<glyph name="exclam" format="2">
  <advance width="600"/>
  <unicode hex="0021"/>
  <outline>
    <contour>
      <point x="232" y="242" type="line"/>
      <point x="350" y="242" type="line"/>
      <point x="472" y="727" type="line"/>
      <point x="316" y="727" type="line"/>
    </contour>
    <contour>
      <point x="253" y="-11" type="curve" smooth="yes"/>
      <point x="309" y="-11"/>
      <point x="359" y="42"/>
      <point x="359" y="101" type="curve" smooth="yes"/>
      <point x="359" y="151"/>
      <point x="324" y="190"/>
      <point x="277" y="190" type="curve" smooth="yes"/>
      <point x="219" y="190"/>
      <point x="169" y="139"/>
      <point x="169" y="78" type="curve" smooth="yes"/>
      <point x="169" y="28"/>
      <point x="204" y="-11"/>
    </contour>
  </outline>
</glyph>
<glyph name="dollar" format="2">
  <advance width="600"/>
  <unicode hex="0024"/>
  <outline>
    <contour>
      <point x="182" y="-67" type="line"/>
      <point x="260" y="-67" type="line"/>
      <point x="278" y="14" type="line"/>
      <point x="279" y="14"/>
      <point x="280" y="14"/>
      <point x="281" y="14" type="curve" smooth="yes"/>
      <point x="440" y="14"/>
      <point x="545" y="99"/>
      <point x="545" y="229" type="curve" smooth="yes"/>
      <point x="545" y="316"/>
      <point x="489" y="376"/>
      <point x="366" y="417" type="curve"/>
      <point x="394" y="546" type="line"/>
      <point x="434" y="535"/>
      <point x="474" y="514"/>
      <point x="514" y="486" type="curve"/>
      <point x="593" y="600" type="line"/>
      <point x="542" y="637"/>
      <point x="483" y="664"/>
      <point x="423" y="677" type="curve"/>
      <point x="443" y="768" type="line"/>
      <point x="365" y="768" type="line"/>
      <point x="347" y="687" type="line"/>
      <point x="344" y="687"/>
      <point x="341" y="687"/>
      <point x="338" y="687" type="curve" smooth="yes"/>
      <point x="184" y="687"/>
      <point x="82" y="606"/>
      <point x="82" y="483" type="curve" smooth="yes"/>
      <point x="82" y="395"/>
      <point x="137" y="337"/>
      <point x="262" y="297" type="curve"/>
      <point x="230" y="154" type="line"/>
      <point x="186" y="166"/>
      <point x="137" y="191"/>
      <point x="89" y="225" type="curve"/>
      <point x="12" y="105" type="line"/>
      <point x="67" y="64"/>
      <point x="134" y="35"/>
      <point x="202" y="22" type="curve"/>
    </contour>
    <contour>
      <point x="293" y="438" type="line"/>
      <point x="248" y="454"/>
      <point x="230" y="471"/>
      <point x="230" y="497" type="curve" smooth="yes"/>
      <point x="230" y="531"/>
      <point x="264" y="553"/>
      <point x="318" y="556" type="curve"/>
    </contour>
    <contour>
      <point x="307" y="146" type="curve"/>
      <point x="335" y="276" type="line"/>
      <point x="379" y="259"/>
      <point x="397" y="240"/>
      <point x="397" y="215" type="curve" smooth="yes"/>
      <point x="397" y="177"/>
      <point x="362" y="150"/>
    </contour>
  </outline>
</glyph>
<glyph name="percent" format="2">
  <advance width="600"/>
  <unicode hex="0025"/>
  <outline>
    <contour>
      <point x="417" y="-4" type="curve" smooth="yes"/>
      <point x="501" y="-4"/>
      <point x="565" y="73"/>
      <point x="565" y="167" type="curve" smooth="yes"/>
      <point x="565" y="241"/>
      <point x="524" y="289"/>
      <point x="452" y="289" type="curve" smooth="yes"/>
      <point x="368" y="289"/>
      <point x="304" y="212"/>
      <point x="304" y="118" type="curve" smooth="yes"/>
      <point x="304" y="44"/>
      <point x="345" y="-4"/>
    </contour>
    <contour>
      <point x="423" y="69" type="curve" smooth="yes"/>
      <point x="398" y="69"/>
      <point x="384" y="86"/>
      <point x="384" y="119" type="curve" smooth="yes"/>
      <point x="384" y="172"/>
      <point x="410" y="215"/>
      <point x="446" y="215" type="curve" smooth="yes"/>
      <point x="471" y="215"/>
      <point x="485" y="198"/>
      <point x="485" y="165" type="curve" smooth="yes"/>
      <point x="485" y="112"/>
      <point x="459" y="69"/>
    </contour>
    <contour>
      <point x="188" y="416" type="curve" smooth="yes"/>
      <point x="272" y="416"/>
      <point x="336" y="493"/>
      <point x="336" y="587" type="curve" smooth="yes"/>
      <point x="336" y="661"/>
      <point x="295" y="709"/>
      <point x="223" y="709" type="curve" smooth="yes"/>
      <point x="139" y="709"/>
      <point x="75" y="632"/>
      <point x="75" y="538" type="curve" smooth="yes"/>
      <point x="75" y="464"/>
      <point x="116" y="416"/>
    </contour>
    <contour>
      <point x="194" y="489" type="curve" smooth="yes"/>
      <point x="169" y="489"/>
      <point x="155" y="506"/>
      <point x="155" y="539" type="curve" smooth="yes"/>
      <point x="155" y="592"/>
      <point x="181" y="635"/>
      <point x="217" y="635" type="curve" smooth="yes"/>
      <point x="242" y="635"/>
      <point x="256" y="618"/>
      <point x="256" y="585" type="curve" smooth="yes"/>
      <point x="256" y="532"/>
      <point x="230" y="489"/>
    </contour>
    <component base="fraction" xOffset="16"/>
  </outline>
</glyph>
<glyph name="two" format="2">
  <advance width="600"/>
  <unicode hex="0032"/>
  <outline>
    <contour>
      <point x="2" y="0" type="line"/>
      <point x="504" y="0" type="line"/>
      <point x="533" y="130" type="line"/>
      <point x="238" y="129" type="line"/>
      <point x="467" y="320" type="line" smooth="yes"/>
      <point x="554" y="392"/>
      <point x="588" y="450"/>
      <point x="588" y="526" type="curve" smooth="yes"/>
      <point x="588" y="635"/>
      <point x="496" y="709"/>
      <point x="361" y="709" type="curve" smooth="yes"/>
      <point x="270" y="709"/>
      <point x="177" y="675"/>
      <point x="101" y="613" type="curve"/>
      <point x="169" y="501" type="line"/>
      <point x="237" y="552"/>
      <point x="293" y="575"/>
      <point x="346" y="575" type="curve" smooth="yes"/>
      <point x="401" y="575"/>
      <point x="437" y="548"/>
      <point x="437" y="505" type="curve" smooth="yes"/>
      <point x="437" y="471"/>
      <point x="420" y="445"/>
      <point x="367" y="400" type="curve" smooth="yes"/>
      <point x="24" y="109" type="line"/>
    </contour>
  </outline>
</glyph>
<glyph name="four" format="2">
  <advance width="600"/>
  <unicode hex="0034"/>
  <outline>
    <contour>
      <point x="312" y="0" type="line"/>
      <point x="461" y="0" type="line"/>
      <point x="494" y="157" type="line"/>
      <point x="569" y="157" type="line"/>
      <point x="597" y="288" type="line"/>
      <point x="522" y="288" type="line"/>
      <point x="610" y="700" type="line"/>
      <point x="440" y="700" type="line"/>
      <point x="16" y="284" type="line"/>
      <point x="-10" y="157" type="line"/>
      <point x="345" y="157" type="line"/>
    </contour>
    <contour>
      <point x="180" y="288" type="line"/>
      <point x="426" y="533" type="line"/>
      <point x="373" y="288" type="line"/>
    </contour>
  </outline>
</glyph>
<glyph name="five" format="2">
  <advance width="600"/>
  <unicode hex="0035"/>
  <outline>
    <contour>
      <point x="259" y="-9" type="curve" smooth="yes"/>
      <point x="426" y="-9"/>
      <point x="553" y="104"/>
      <point x="553" y="252" type="curve" smooth="yes"/>
      <point x="553" y="364"/>
      <point x="462" y="443"/>
      <point x="333" y="443" type="curve" smooth="yes"/>
      <point x="297" y="443"/>
      <point x="260" y="435"/>
      <point x="226" y="420" type="curve"/>
      <point x="265" y="569" type="line"/>
      <point x="585" y="569" type="line"/>
      <point x="614" y="700" type="line"/>
      <point x="163" y="700" type="line"/>
      <point x="73" y="343" type="line"/>
      <point x="171" y="303" type="line"/>
      <point x="208" y="319"/>
      <point x="240" y="327"/>
      <point x="271" y="327" type="curve" smooth="yes"/>
      <point x="343" y="327"/>
      <point x="397" y="285"/>
      <point x="397" y="229" type="curve" smooth="yes"/>
      <point x="397" y="169"/>
      <point x="342" y="123"/>
      <point x="270" y="123" type="curve" smooth="yes"/>
      <point x="206" y="123"/>
      <point x="156" y="148"/>
      <point x="104" y="205" type="curve"/>
      <point x="-5" y="106" type="line"/>
      <point x="58" y="31"/>
      <point x="150" y="-9"/>
    </contour>
  </outline>
</glyph>
<glyph name="six" format="2">
  <advance width="600"/>
  <unicode hex="0036"/>
  <outline>
    <contour>
      <point x="299" y="-11" type="curve" smooth="yes"/>
      <point x="450" y="-11"/>
      <point x="574" y="104"/>
      <point x="574" y="244" type="curve" smooth="yes"/>
      <point x="574" y="351"/>
      <point x="487" y="430"/>
      <point x="370" y="430" type="curve" smooth="yes"/>
      <point x="303" y="430"/>
      <point x="239" y="397"/>
      <point x="191" y="337" type="curve"/>
      <point x="213" y="477"/>
      <point x="302" y="576"/>
      <point x="405" y="576" type="curve" smooth="yes"/>
      <point x="456" y="576"/>
      <point x="500" y="557"/>
      <point x="542" y="517" type="curve"/>
      <point x="637" y="625" type="line"/>
      <point x="583" y="680"/>
      <point x="504" y="711"/>
      <point x="417" y="711" type="curve" smooth="yes"/>
      <point x="205" y="711"/>
      <point x="38" y="518"/>
      <point x="38" y="274" type="curve" smooth="yes"/>
      <point x="38" y="99"/>
      <point x="139" y="-11"/>
    </contour>
    <contour>
      <point x="310" y="122" type="curve" smooth="yes"/>
      <point x="236" y="122"/>
      <point x="189" y="176"/>
      <point x="186" y="263" type="curve"/>
      <point x="226" y="296"/>
      <point x="273" y="313"/>
      <point x="324" y="313" type="curve" smooth="yes"/>
      <point x="382" y="313"/>
      <point x="427" y="275"/>
      <point x="427" y="225" type="curve" smooth="yes"/>
      <point x="427" y="167"/>
      <point x="376" y="122"/>
    </contour>
  </outline>
</glyph>
<glyph name="seven" format="2">
  <advance width="600"/>
  <unicode hex="0037"/>
  <outline>
    <contour>
      <point x="50" y="0" type="line"/>
      <point x="241" y="0" type="line"/>
      <point x="635" y="585" type="line"/>
      <point x="661" y="700" type="line"/>
      <point x="126" y="700" type="line"/>
      <point x="96" y="564" type="line"/>
      <point x="462" y="564" type="line"/>
    </contour>
  </outline>
</glyph>
<glyph name="eight" format="2">
  <advance width="600"/>
  <unicode hex="0038"/>
  <note>
Version created Tue Sep 18 15:49:42 2018
</note>
  <outline>
    <contour>
      <point x="271" y="-11" type="curve" smooth="yes"/>
      <point x="430" y="-11"/>
      <point x="555" y="88"/>
      <point x="555" y="215" type="curve" smooth="yes"/>
      <point x="555" y="276"/>
      <point x="516" y="326"/>
      <point x="456" y="351" type="curve"/>
      <point x="539" y="379"/>
      <point x="601" y="450"/>
      <point x="601" y="528" type="curve" smooth="yes"/>
      <point x="601" y="635"/>
      <point x="506" y="711"/>
      <point x="373" y="711" type="curve" smooth="yes"/>
      <point x="225" y="711"/>
      <point x="103" y="611"/>
      <point x="103" y="488" type="curve" smooth="yes"/>
      <point x="103" y="437"/>
      <point x="133" y="393"/>
      <point x="182" y="367" type="curve"/>
      <point x="88" y="342"/>
      <point x="18" y="265"/>
      <point x="18" y="176" type="curve" smooth="yes"/>
      <point x="18" y="65"/>
      <point x="120" y="-11"/>
    </contour>
    <contour>
      <point x="343" y="411" type="curve" smooth="yes"/>
      <point x="290" y="411"/>
      <point x="251" y="443"/>
      <point x="251" y="488" type="curve" smooth="yes"/>
      <point x="251" y="541"/>
      <point x="300" y="584"/>
      <point x="359" y="584" type="curve" smooth="yes"/>
      <point x="411" y="584"/>
      <point x="449" y="551"/>
      <point x="449" y="505" type="curve" smooth="yes"/>
      <point x="449" y="455"/>
      <point x="400" y="411"/>
    </contour>
    <contour>
      <point x="283" y="118" type="curve" smooth="yes"/>
      <point x="218" y="118"/>
      <point x="174" y="153"/>
      <point x="174" y="203" type="curve" smooth="yes"/>
      <point x="174" y="257"/>
      <point x="227" y="300"/>
      <point x="294" y="300" type="curve" smooth="yes"/>
      <point x="359" y="300"/>
      <point x="404" y="265"/>
      <point x="404" y="216" type="curve" smooth="yes"/>
      <point x="404" y="161"/>
      <point x="350" y="118"/>
    </contour>
  </outline>
</glyph>
<glyph name="less" format="2">
  <advance width="600"/>
  <unicode hex="003C"/>
  <outline>
    <contour>
      <point x="390" y="43" type="line"/>
      <point x="490" y="134" type="line"/>
      <point x="286" y="342" type="line"/>
      <point x="585" y="555" type="line"/>
      <point x="521" y="652" type="line"/>
      <point x="99" y="347" type="line"/>
    </contour>
  </outline>
</glyph>
<glyph name="A" format="2">
  <advance width="600"/>
  <unicode hex="0041"/>
  <anchor x="392" y="700" name="top"/>
  <anchor x="545" y="0" name="bottom"/>
  <outline>
    <contour>
      <point x="-55" y="0" type="line"/>
      <point x="111" y="0" type="line"/>
      <point x="176" y="137" type="line"/>
      <point x="369" y="137" type="line"/>
      <point x="375" y="0" type="line"/>
      <point x="545" y="0" type="line"/>
      <point x="493" y="700" type="line"/>
      <point x="295" y="700" type="line"/>
    </contour>
    <contour>
      <point x="239" y="270" type="line"/>
      <point x="354" y="511" type="line"/>
      <point x="364" y="270" type="line"/>
    </contour>
  </outline>
</glyph>
<glyph name="F" format="2">
  <advance width="600"/>
  <unicode hex="0046"/>
  <outline>
    <contour>
      <point x="17" y="0" type="line"/>
      <point x="185" y="0" type="line"/>
      <point x="244" y="278" type="line"/>
      <point x="454" y="278" type="line"/>
      <point x="484" y="418" type="line"/>
      <point x="274" y="418" type="line"/>
      <point x="303" y="556" type="line"/>
      <point x="619" y="556" type="line"/>
      <point x="651" y="700" type="line"/>
      <point x="166" y="700" type="line"/>
    </contour>
  </outline>
</glyph>
<glyph name="H" format="2">
  <advance width="600"/>
  <unicode hex="0048"/>
  <guideline x="319" y="350" angle="90.0" color="0.999,0.001,0.001,0.999" identifier="ey0azTqPvY"/>
  <anchor x="392" y="700" name="top"/>
  <outline>
    <contour>
      <point x="-8" y="0" type="line"/>
      <point x="164" y="0" type="line"/>
      <point x="223" y="277" type="line"/>
      <point x="385" y="277" type="line"/>
      <point x="326" y="0" type="line"/>
      <point x="498" y="0" type="line"/>
      <point x="647" y="700" type="line"/>
      <point x="475" y="700" type="line"/>
      <point x="417" y="428" type="line"/>
      <point x="255" y="428" type="line"/>
      <point x="313" y="700" type="line"/>
      <point x="141" y="700" type="line"/>
    </contour>
  </outline>
</glyph>
<glyph name="I" format="2">
  <advance width="600"/>
  <unicode hex="0049"/>
  <anchor x="392" y="700" name="top"/>
  <anchor x="500" y="0" name="bottom"/>
  <outline>
    <contour>
      <point x="-11" y="0" type="line"/>
      <point x="501" y="0" type="line"/>
      <point x="531" y="142" type="line"/>
      <point x="361" y="142" type="line"/>
      <point x="450" y="558" type="line"/>
      <point x="620" y="558" type="line"/>
      <point x="650" y="700" type="line"/>
      <point x="138" y="700" type="line"/>
      <point x="108" y="558" type="line"/>
      <point x="278" y="558" type="line"/>
      <point x="189" y="142" type="line"/>
      <point x="19" y="142" type="line"/>
    </contour>
  </outline>
</glyph>
<glyph name="L" format="2">
  <advance width="600"/>
  <unicode hex="004C"/>
  <anchor x="247" y="700" name="top"/>
  <anchor x="293" y="0" name="bottom"/>
  <outline>
    <contour>
      <point x="17" y="0" type="line"/>
      <point x="506" y="0" type="line"/>
      <point x="538" y="144" type="line"/>
      <point x="216" y="144" type="line"/>
      <point x="334" y="700" type="line"/>
      <point x="166" y="700" type="line"/>
    </contour>
  </outline>
</glyph>
<glyph name="N" format="2">
  <advance width="600"/>
  <unicode hex="004E"/>
  <guideline x="319" y="350" angle="90.0" color="0.999,0.001,0.001,0.999" identifier="3xBKJz29bK"/>
  <anchor x="392" y="700" name="top"/>
  <anchor x="243" y="0" name="bottom"/>
  <outline>
    <contour>
      <point x="-8" y="0" type="line"/>
      <point x="137" y="0" type="line"/>
      <point x="222" y="408" type="line"/>
      <point x="349" y="0" type="line"/>
      <point x="498" y="0" type="line"/>
      <point x="647" y="700" type="line"/>
      <point x="502" y="700" type="line"/>
      <point x="421" y="306" type="line"/>
      <point x="300" y="700" type="line"/>
      <point x="141" y="700" type="line"/>
    </contour>
  </outline>
</glyph>
<glyph name="O" format="2">
  <advance width="600"/>
  <unicode hex="004F"/>
  <anchor x="378" y="700" name="top"/>
  <outline>
    <contour>
      <point x="273" y="-11" type="curve" smooth="yes"/>
      <point x="459" y="-11"/>
      <point x="601" y="182"/>
      <point x="601" y="434" type="curve" smooth="yes"/>
      <point x="601" y="598"/>
      <point x="505" y="711"/>
      <point x="365" y="711" type="curve" smooth="yes"/>
      <point x="179" y="711"/>
      <point x="37" y="518"/>
      <point x="37" y="266" type="curve" smooth="yes"/>
      <point x="37" y="102"/>
      <point x="133" y="-11"/>
    </contour>
    <contour>
      <point x="287" y="141" type="curve" smooth="yes"/>
      <point x="237" y="141"/>
      <point x="207" y="189"/>
      <point x="207" y="271" type="curve" smooth="yes"/>
      <point x="207" y="433"/>
      <point x="270" y="559"/>
      <point x="351" y="559" type="curve" smooth="yes"/>
      <point x="401" y="559"/>
      <point x="431" y="511"/>
      <point x="431" y="429" type="curve" smooth="yes"/>
      <point x="431" y="267"/>
      <point x="368" y="141"/>
    </contour>
  </outline>
</glyph>
<glyph name="P" format="2">
  <advance width="600"/>
  <unicode hex="0050"/>
  <outline>
    <contour>
      <point x="2" y="0" type="line"/>
      <point x="170" y="0" type="line"/>
      <point x="222" y="244" type="line"/>
      <point x="341" y="244" type="line" smooth="yes"/>
      <point x="496" y="244"/>
      <point x="615" y="350"/>
      <point x="615" y="489" type="curve" smooth="yes"/>
      <point x="615" y="617"/>
      <point x="524" y="700"/>
      <point x="385" y="700" type="curve" smooth="yes"/>
      <point x="151" y="700" type="line"/>
    </contour>
    <contour>
      <point x="251" y="381" type="line"/>
      <point x="289" y="558" type="line"/>
      <point x="345" y="558" type="line" smooth="yes"/>
      <point x="407" y="558"/>
      <point x="443" y="528"/>
      <point x="443" y="477" type="curve" smooth="yes"/>
      <point x="443" y="419"/>
      <point x="397" y="381"/>
      <point x="327" y="381" type="curve" smooth="yes"/>
    </contour>
  </outline>
</glyph>
<glyph name="U" format="2">
  <advance width="600"/>
  <unicode hex="0055"/>
  <anchor x="389" y="700" name="top"/>
  <anchor x="355" y="0" name="bottom"/>
  <outline>
    <contour>
      <point x="275" y="-10" type="curve" smooth="yes"/>
      <point x="421" y="-10"/>
      <point x="520" y="81"/>
      <point x="553" y="235" type="curve" smooth="yes"/>
      <point x="653" y="700" type="line"/>
      <point x="481" y="700" type="line"/>
      <point x="384" y="248" type="line" smooth="yes"/>
      <point x="371" y="185"/>
      <point x="338" y="144"/>
      <point x="286" y="144" type="curve" smooth="yes"/>
      <point x="235" y="144"/>
      <point x="198" y="185"/>
      <point x="213" y="257" type="curve" smooth="yes"/>
      <point x="308" y="700" type="line"/>
      <point x="136" y="700" type="line"/>
      <point x="43" y="266" type="line" smooth="yes"/>
      <point x="6" y="94"/>
      <point x="120" y="-10"/>
    </contour>
  </outline>
</glyph>
<glyph name="W" format="2">
  <advance width="600"/>
  <unicode hex="0057"/>
  <anchor x="393" y="700" name="top"/>
  <outline>
    <contour>
      <point x="31" y="0" type="line"/>
      <point x="181" y="0" type="line"/>
      <point x="331" y="397" type="line"/>
      <point x="312" y="0" type="line"/>
      <point x="460" y="0" type="line"/>
      <point x="686" y="700" type="line"/>
      <point x="545" y="700" type="line"/>
      <point x="441" y="337" type="line"/>
      <point x="453" y="700" type="line"/>
      <point x="338" y="700" type="line"/>
      <point x="196" y="337" type="line"/>
      <point x="247" y="700" type="line"/>
      <point x="102" y="700" type="line"/>
    </contour>
  </outline>
</glyph>
<glyph name="Z" format="2">
  <advance width="600"/>
  <unicode hex="005A"/>
  <anchor x="389" y="700" name="top"/>
  <outline>
    <contour>
      <point x="-9" y="0" type="line"/>
      <point x="499" y="0" type="line"/>
      <point x="531" y="144" type="line"/>
      <point x="249" y="142" type="line"/>
      <point x="620" y="588" type="line"/>
      <point x="645" y="700" type="line"/>
      <point x="142" y="700" type="line"/>
      <point x="110" y="556" type="line"/>
      <point x="388" y="559" type="line"/>
      <point x="16" y="112" type="line"/>
    </contour>
  </outline>
</glyph>
<glyph name="bracketleft" format="2">
  <advance width="600"/>
  <unicode hex="005B"/>
  <outline>
    <contour>
      <point x="25" y="-215" type="line"/>
      <point x="378" y="-215" type="line"/>
      <point x="405" y="-89" type="line"/>
      <point x="198" y="-89" type="line"/>
      <point x="340" y="574" type="line"/>
      <point x="547" y="574" type="line"/>
      <point x="574" y="700" type="line"/>
      <point x="221" y="700" type="line"/>
    </contour>
  </outline>
</glyph>
<glyph name="backslash" format="2">
  <advance width="600"/>
  <unicode hex="005C"/>
  <outline>
    <contour>
      <point x="359" y="-209" type="line"/>
      <point x="511" y="-209" type="line"/>
      <point x="303" y="700" type="line"/>
      <point x="150" y="700" type="line"/>
    </contour>
  </outline>
</glyph>
<glyph name="bracketright" format="2">
  <advance width="600"/>
  <unicode hex="005D"/>
  <outline>
    <contour>
      <point x="568" y="700" type="line"/>
      <point x="215" y="700" type="line"/>
      <point x="188" y="574" type="line"/>
      <point x="395" y="574" type="line"/>
      <point x="253" y="-89" type="line"/>
      <point x="46" y="-89" type="line"/>
      <point x="19" y="-215" type="line"/>
      <point x="372" y="-215" type="line"/>
    </contour>
  </outline>
</glyph>
<glyph name="underscore" format="2">
  <advance width="600"/>
  <unicode hex="005F"/>
  <outline>
    <contour>
      <point x="-34" y="-191" type="line"/>
      <point x="442" y="-191" type="line"/>
      <point x="466" y="-80" type="line"/>
      <point x="-10" y="-80" type="line"/>
    </contour>
  </outline>
</glyph>
<glyph name="grave" format="2">
  <advance width="600"/>
  <unicode hex="0060"/>
  <outline>
    <contour>
      <point x="325" y="601" type="line"/>
      <point x="466" y="601" type="line"/>
      <point x="330" y="747" type="line"/>
      <point x="136" y="747" type="line"/>
    </contour>
  </outline>
</glyph>
<glyph name="a" format="2">
  <advance width="600"/>
  <unicode hex="0061"/>
  <anchor x="331" y="516" name="top"/>
  <anchor x="471" y="0" name="bottom"/>
  <outline>
    <contour>
      <point x="193" y="-4" type="curve" smooth="yes"/>
      <point x="238" y="-4"/>
      <point x="274" y="9"/>
      <point x="324" y="44" type="curve"/>
      <point x="314" y="0" type="line"/>
      <point x="471" y="0" type="line"/>
      <point x="537" y="303" type="line" smooth="yes"/>
      <point x="567" y="440"/>
      <point x="485" y="523"/>
      <point x="321" y="523" type="curve" smooth="yes"/>
      <point x="260" y="523"/>
      <point x="192" y="509"/>
      <point x="111" y="480" type="curve"/>
      <point x="147" y="366" type="line"/>
      <point x="203" y="384"/>
      <point x="243" y="392"/>
      <point x="278" y="392" type="curve" smooth="yes"/>
      <point x="359" y="392"/>
      <point x="392" y="363"/>
      <point x="379" y="302" type="curve" smooth="yes"/>
      <point x="373" y="273" type="line"/>
      <point x="333" y="290"/>
      <point x="287" y="301"/>
      <point x="243" y="301" type="curve" smooth="yes"/>
      <point x="113" y="301"/>
      <point x="34" y="238"/>
      <point x="34" y="135" type="curve" smooth="yes"/>
      <point x="34" y="49"/>
      <point x="95" y="-4"/>
    </contour>
    <contour>
      <point x="179" y="150" type="curve" smooth="yes"/>
      <point x="179" y="187"/>
      <point x="209" y="206"/>
      <point x="264" y="206" type="curve" smooth="yes"/>
      <point x="298" y="206"/>
      <point x="330" y="200"/>
      <point x="355" y="192" type="curve"/>
      <point x="340" y="122" type="line"/>
      <point x="314" y="107"/>
      <point x="287" y="100"/>
      <point x="257" y="100" type="curve" smooth="yes"/>
      <point x="207" y="100"/>
      <point x="179" y="120"/>
    </contour>
  </outline>
</glyph>
<glyph name="b" format="2">
  <advance width="600"/>
  <unicode hex="0062"/>
  <outline>
    <contour>
      <point x="314" y="-3" type="curve" smooth="yes"/>
      <point x="455" y="-3"/>
      <point x="568" y="132"/>
      <point x="568" y="290" type="curve" smooth="yes"/>
      <point x="568" y="417"/>
      <point x="487" y="519"/>
      <point x="384" y="519" type="curve" smooth="yes"/>
      <point x="340" y="519"/>
      <point x="300" y="506"/>
      <point x="262" y="469" type="curve"/>
      <point x="319" y="737" type="line"/>
      <point x="156" y="712" type="line"/>
      <point x="4" y="0" type="line"/>
      <point x="161" y="0" type="line"/>
      <point x="176" y="64" type="line"/>
      <point x="204" y="22"/>
      <point x="257" y="-3"/>
    </contour>
    <contour>
      <point x="198" y="166" type="curve"/>
      <point x="239" y="358" type="line"/>
      <point x="262" y="380"/>
      <point x="291" y="392"/>
      <point x="320" y="392" type="curve" smooth="yes"/>
      <point x="380" y="392"/>
      <point x="413" y="343"/>
      <point x="413" y="280" type="curve" smooth="yes"/>
      <point x="413" y="194"/>
      <point x="358" y="127"/>
      <point x="284" y="127" type="curve" smooth="yes"/>
      <point x="250" y="127"/>
      <point x="220" y="141"/>
    </contour>
  </outline>
</glyph>
<glyph name="e" format="2">
  <advance width="600"/>
  <unicode hex="0065"/>
  <anchor x="336" y="516" name="top"/>
  <anchor x="379" y="0" name="bottom"/>
  <outline>
    <contour>
      <point x="292" y="-11" type="curve" smooth="yes"/>
      <point x="378" y="-11"/>
      <point x="453" y="19"/>
      <point x="509" y="77" type="curve"/>
      <point x="431" y="168" type="line"/>
      <point x="398" y="136"/>
      <point x="357" y="117"/>
      <point x="313" y="117" type="curve" smooth="yes"/>
      <point x="248" y="117"/>
      <point x="198" y="157"/>
      <point x="189" y="217" type="curve"/>
      <point x="557" y="217" type="line"/>
      <point x="561" y="238"/>
      <point x="563" y="262"/>
      <point x="563" y="293" type="curve" smooth="yes"/>
      <point x="563" y="430"/>
      <point x="467" y="524"/>
      <point x="324" y="524" type="curve" smooth="yes"/>
      <point x="166" y="524"/>
      <point x="35" y="391"/>
      <point x="35" y="233" type="curve" smooth="yes"/>
      <point x="35" y="90"/>
      <point x="142" y="-11"/>
    </contour>
    <contour>
      <point x="200" y="308" type="line"/>
      <point x="220" y="362"/>
      <point x="265" y="397"/>
      <point x="319" y="397" type="curve" smooth="yes"/>
      <point x="376" y="397"/>
      <point x="414" y="363"/>
      <point x="423" y="308" type="curve"/>
    </contour>
  </outline>
</glyph>
<glyph name="g" format="2">
  <advance width="600"/>
  <unicode hex="0067"/>
  <anchor x="355" y="516" name="top"/>
  <outline>
    <contour>
      <point x="230" y="-219" type="curve" smooth="yes"/>
      <point x="359" y="-219"/>
      <point x="453" y="-153"/>
      <point x="479" y="-29" type="curve" smooth="yes"/>
      <point x="595" y="516" type="line"/>
      <point x="439" y="516" type="line"/>
      <point x="426" y="456" type="line"/>
      <point x="397" y="496"/>
      <point x="346" y="519"/>
      <point x="291" y="519" type="curve" smooth="yes"/>
      <point x="150" y="519"/>
      <point x="31" y="384"/>
      <point x="31" y="226" type="curve" smooth="yes"/>
      <point x="31" y="99"/>
      <point x="106" y="-3"/>
      <point x="209" y="-3" type="curve"/>
      <point x="257" y="-3"/>
      <point x="300" y="12"/>
      <point x="340" y="57" type="curve"/>
      <point x="326" y="-11" type="line" smooth="yes"/>
      <point x="314" y="-66"/>
      <point x="283" y="-94"/>
      <point x="233" y="-94" type="curve" smooth="yes"/>
      <point x="180" y="-94"/>
      <point x="121" y="-72"/>
      <point x="64" y="-34" type="curve"/>
      <point x="0" y="-146" type="line"/>
      <point x="65" y="-191"/>
      <point x="145" y="-219"/>
    </contour>
    <contour>
      <point x="279" y="124" type="curve"/>
      <point x="219" y="124"/>
      <point x="186" y="173"/>
      <point x="186" y="236" type="curve" smooth="yes"/>
      <point x="186" y="322"/>
      <point x="241" y="389"/>
      <point x="315" y="389" type="curve" smooth="yes"/>
      <point x="350" y="389"/>
      <point x="379" y="375"/>
      <point x="402" y="350" type="curve"/>
      <point x="362" y="159" type="line"/>
      <point x="338" y="137"/>
      <point x="308" y="124"/>
    </contour>
  </outline>
</glyph>
<glyph name="j" format="2">
  <advance width="600"/>
  <unicode hex="006A"/>
  <outline>
    <contour>
      <point x="471" y="596" type="curve" smooth="yes"/>
      <point x="533" y="596"/>
      <point x="584" y="647"/>
      <point x="584" y="709" type="curve" smooth="yes"/>
      <point x="584" y="759"/>
      <point x="544" y="798"/>
      <point x="494" y="798" type="curve" smooth="yes"/>
      <point x="435" y="798"/>
      <point x="382" y="745"/>
      <point x="382" y="684" type="curve" smooth="yes"/>
      <point x="382" y="634"/>
      <point x="420" y="596"/>
    </contour>
    <contour>
      <point x="165" y="-219" type="curve" smooth="yes"/>
      <point x="300" y="-219"/>
      <point x="383" y="-152"/>
      <point x="411" y="-19" type="curve" smooth="yes"/>
      <point x="526" y="516" type="line"/>
      <point x="129" y="516" type="line"/>
      <point x="102" y="391" type="line"/>
      <point x="337" y="391" type="line"/>
      <point x="256" y="19" type="line" smooth="yes"/>
      <point x="240" y="-54"/>
      <point x="214" y="-80"/>
      <point x="157" y="-80" type="curve" smooth="yes"/>
      <point x="118" y="-80"/>
      <point x="67" y="-67"/>
      <point x="7" y="-43" type="curve"/>
      <point x="-21" y="-177" type="line"/>
      <point x="26" y="-203"/>
      <point x="98" y="-219"/>
    </contour>
  </outline>
</glyph>
<glyph name="p" format="2">
  <advance width="600"/>
  <unicode hex="0070"/>
  <outline>
    <contour>
      <point x="-42" y="-209" type="line"/>
      <point x="117" y="-209" type="line"/>
      <point x="176" y="64" type="line"/>
      <point x="204" y="22"/>
      <point x="258" y="-3"/>
      <point x="314" y="-3" type="curve" smooth="yes"/>
      <point x="455" y="-3"/>
      <point x="568" y="132"/>
      <point x="568" y="290" type="curve" smooth="yes"/>
      <point x="568" y="417"/>
      <point x="487" y="519"/>
      <point x="384" y="519" type="curve"/>
      <point x="340" y="519"/>
      <point x="299" y="506"/>
      <point x="262" y="468" type="curve"/>
      <point x="271" y="516" type="line"/>
      <point x="114" y="516" type="line"/>
    </contour>
    <contour>
      <point x="284" y="127" type="curve" smooth="yes"/>
      <point x="250" y="127"/>
      <point x="220" y="141"/>
      <point x="198" y="166" type="curve"/>
      <point x="240" y="359" type="line"/>
      <point x="263" y="380"/>
      <point x="292" y="392"/>
      <point x="320" y="392" type="curve"/>
      <point x="380" y="392"/>
      <point x="413" y="343"/>
      <point x="413" y="280" type="curve" smooth="yes"/>
      <point x="413" y="194"/>
      <point x="358" y="127"/>
    </contour>
  </outline>
</glyph>
<glyph name="t" format="2">
  <advance width="600"/>
  <unicode hex="0074"/>
  <anchor x="305" y="0" name="bottom"/>
  <outline>
    <contour>
      <point x="346" y="-7" type="curve" smooth="yes"/>
      <point x="389" y="-7"/>
      <point x="450" y="2"/>
      <point x="482" y="14" type="curve"/>
      <point x="510" y="145" type="line"/>
      <point x="473" y="134"/>
      <point x="436" y="129"/>
      <point x="406" y="129" type="curve" smooth="yes"/>
      <point x="341" y="129"/>
      <point x="313" y="152"/>
      <point x="327" y="217" type="curve" smooth="yes"/>
      <point x="364" y="391" type="line"/>
      <point x="559" y="391" type="line"/>
      <point x="586" y="516" type="line"/>
      <point x="391" y="516" type="line"/>
      <point x="428" y="692" type="line"/>
      <point x="259" y="659" type="line"/>
      <point x="228" y="516" type="line"/>
      <point x="78" y="516" type="line"/>
      <point x="51" y="391" type="line"/>
      <point x="202" y="391" type="line"/>
      <point x="162" y="205" type="line" smooth="yes"/>
      <point x="133" y="71"/>
      <point x="201" y="-7"/>
    </contour>
  </outline>
</glyph>
<glyph name="u" format="2">
  <advance width="600"/>
  <unicode hex="0075"/>
  <anchor x="344" y="516" name="top"/>
  <anchor x="484" y="0" name="bottom"/>
  <outline>
    <contour>
      <point x="173" y="-6" type="curve" smooth="yes"/>
      <point x="236" y="-6"/>
      <point x="294" y="24"/>
      <point x="342" y="80" type="curve"/>
      <point x="325" y="0" type="line"/>
      <point x="484" y="0" type="line"/>
      <point x="596" y="516" type="line"/>
      <point x="437" y="516" type="line"/>
      <point x="359" y="158" type="line"/>
      <point x="332" y="131"/>
      <point x="305" y="119"/>
      <point x="274" y="119" type="curve" smooth="yes"/>
      <point x="220" y="119"/>
      <point x="192" y="160"/>
      <point x="205" y="219" type="curve" smooth="yes"/>
      <point x="269" y="516" type="line"/>
      <point x="110" y="516" type="line"/>
      <point x="38" y="179" type="line" smooth="yes"/>
      <point x="14" y="69"/>
      <point x="69" y="-6"/>
    </contour>
  </outline>
</glyph>
<glyph name="v" format="2">
  <advance width="600"/>
  <unicode hex="0076"/>
  <outline>
    <contour>
      <point x="164" y="0" type="line"/>
      <point x="318" y="0" type="line"/>
      <point x="637" y="516" type="line"/>
      <point x="468" y="516" type="line"/>
      <point x="283" y="189" type="line"/>
      <point x="238" y="516" type="line"/>
      <point x="71" y="516" type="line"/>
    </contour>
  </outline>
</glyph>
<glyph name="z" format="2">
  <advance width="600"/>
  <unicode hex="007A"/>
  <anchor x="345" y="516" name="top"/>
  <outline>
    <contour>
      <point x="0" y="0" type="line"/>
      <point x="488" y="0" type="line"/>
      <point x="517" y="135" type="line"/>
      <point x="245" y="133" type="line"/>
      <point x="568" y="403" type="line"/>
      <point x="592" y="516" type="line"/>
      <point x="113" y="516" type="line"/>
      <point x="85" y="380" type="line"/>
      <point x="345" y="382" type="line"/>
      <point x="24" y="113" type="line"/>
    </contour>
  </outline>
</glyph>
<glyph name="braceleft" format="2">
  <advance width="600"/>
  <unicode hex="007B"/>
  <outline>
    <contour>
      <point x="287" y="-222" type="curve" smooth="yes"/>
      <point x="322" y="-222"/>
      <point x="359" y="-216"/>
      <point x="388" y="-205" type="curve"/>
      <point x="381" y="-92" type="line"/>
      <point x="369" y="-96"/>
      <point x="346" y="-102"/>
      <point x="323" y="-102" type="curve" smooth="yes"/>
      <point x="282" y="-102"/>
      <point x="259" y="-86"/>
      <point x="259" y="-59" type="curve" smooth="yes"/>
      <point x="259" y="-10"/>
      <point x="360" y="65"/>
      <point x="360" y="139" type="curve" smooth="yes"/>
      <point x="360" y="185"/>
      <point x="326" y="223"/>
      <point x="269" y="238" type="curve"/>
      <point x="343" y="251"/>
      <point x="400" y="304"/>
      <point x="400" y="371" type="curve" smooth="yes"/>
      <point x="400" y="416"/>
      <point x="377" y="467"/>
      <point x="377" y="514" type="curve" smooth="yes"/>
      <point x="377" y="557"/>
      <point x="403" y="587"/>
      <point x="457" y="587" type="curve" smooth="yes"/>
      <point x="481" y="587"/>
      <point x="502" y="581"/>
      <point x="526" y="568" type="curve"/>
      <point x="570" y="680" type="line"/>
      <point x="534" y="700"/>
      <point x="496" y="709"/>
      <point x="447" y="709" type="curve" smooth="yes"/>
      <point x="323" y="709"/>
      <point x="248" y="634"/>
      <point x="248" y="534" type="curve" smooth="yes"/>
      <point x="248" y="469"/>
      <point x="273" y="430"/>
      <point x="273" y="383" type="curve" smooth="yes"/>
      <point x="273" y="336"/>
      <point x="236" y="302"/>
      <point x="187" y="302" type="curve" smooth="yes"/>
      <point x="107" y="302" type="line"/>
      <point x="82" y="184" type="line"/>
      <point x="162" y="184" type="line" smooth="yes"/>
      <point x="200" y="184"/>
      <point x="223" y="161"/>
      <point x="223" y="131" type="curve" smooth="yes"/>
      <point x="223" y="67"/>
      <point x="115" y="2"/>
      <point x="115" y="-91" type="curve" smooth="yes"/>
      <point x="115" y="-165"/>
      <point x="180" y="-222"/>
    </contour>
  </outline>
</glyph>
<glyph name="bar" format="2">
  <advance width="600"/>
  <unicode hex="007C"/>
  <outline>
    <contour>
      <point x="127" y="-209" type="line"/>
      <point x="271" y="-209" type="line"/>
      <point x="466" y="700" type="line"/>
      <point x="322" y="700" type="line"/>
    </contour>
  </outline>
</glyph>
<glyph name="braceright" format="2">
  <advance width="600"/>
  <unicode hex="007D"/>
  <outline>
    <contour>
      <point x="306" y="708" type="curve" smooth="yes"/>
      <point x="271" y="708"/>
      <point x="234" y="702"/>
      <point x="205" y="691" type="curve"/>
      <point x="212" y="578" type="line"/>
      <point x="224" y="582"/>
      <point x="247" y="588"/>
      <point x="270" y="588" type="curve" smooth="yes"/>
      <point x="311" y="588"/>
      <point x="334" y="572"/>
      <point x="334" y="545" type="curve" smooth="yes"/>
      <point x="334" y="496"/>
      <point x="233" y="421"/>
      <point x="233" y="347" type="curve" smooth="yes"/>
      <point x="233" y="301"/>
      <point x="267" y="263"/>
      <point x="324" y="248" type="curve"/>
      <point x="250" y="235"/>
      <point x="193" y="182"/>
      <point x="193" y="115" type="curve" smooth="yes"/>
      <point x="193" y="70"/>
      <point x="216" y="19"/>
      <point x="216" y="-28" type="curve" smooth="yes"/>
      <point x="216" y="-71"/>
      <point x="190" y="-101"/>
      <point x="136" y="-101" type="curve" smooth="yes"/>
      <point x="112" y="-101"/>
      <point x="91" y="-95"/>
      <point x="67" y="-82" type="curve"/>
      <point x="23" y="-194" type="line"/>
      <point x="59" y="-214"/>
      <point x="97" y="-223"/>
      <point x="146" y="-223" type="curve" smooth="yes"/>
      <point x="270" y="-223"/>
      <point x="345" y="-148"/>
      <point x="345" y="-48" type="curve" smooth="yes"/>
      <point x="345" y="17"/>
      <point x="320" y="56"/>
      <point x="320" y="103" type="curve" smooth="yes"/>
      <point x="320" y="150"/>
      <point x="357" y="184"/>
      <point x="406" y="184" type="curve" smooth="yes"/>
      <point x="486" y="184" type="line"/>
      <point x="511" y="302" type="line"/>
      <point x="431" y="302" type="line" smooth="yes"/>
      <point x="393" y="302"/>
      <point x="370" y="325"/>
      <point x="370" y="355" type="curve" smooth="yes"/>
      <point x="370" y="419"/>
      <point x="478" y="484"/>
      <point x="478" y="577" type="curve" smooth="yes"/>
      <point x="478" y="651"/>
      <point x="413" y="708"/>
    </contour>
  </outline>
</glyph>
<glyph name="asciitilde" format="2">
  <advance width="600"/>
  <unicode hex="007E"/>
  <outline>
    <contour>
      <point x="147" y="291" type="line"/>
      <point x="163" y="336"/>
      <point x="184" y="358"/>
      <point x="212" y="358" type="curve" smooth="yes"/>
      <point x="227" y="358"/>
      <point x="244" y="352"/>
      <point x="269" y="336" type="curve" smooth="yes"/>
      <point x="339" y="293" type="line" smooth="yes"/>
      <point x="371" y="273"/>
      <point x="409" y="261"/>
      <point x="439" y="261" type="curve" smooth="yes"/>
      <point x="509" y="261"/>
      <point x="567" y="319"/>
      <point x="602" y="425" type="curve"/>
      <point x="498" y="449" type="line"/>
      <point x="481" y="402"/>
      <point x="461" y="381"/>
      <point x="433" y="381" type="curve" smooth="yes"/>
      <point x="418" y="381"/>
      <point x="400" y="388"/>
      <point x="376" y="403" type="curve" smooth="yes"/>
      <point x="306" y="446" type="line" smooth="yes"/>
      <point x="272" y="466"/>
      <point x="235" y="478"/>
      <point x="205" y="478" type="curve" smooth="yes"/>
      <point x="135" y="478"/>
      <point x="78" y="420"/>
      <point x="44" y="314" type="curve"/>
    </contour>
  </outline>
</glyph>
<glyph name="uni00A6" format="2">
  <advance width="600"/>
  <unicode hex="00A6"/>
  <outline>
    <contour>
      <point x="230" y="288" type="line"/>
      <point x="379" y="288" type="line"/>
      <point x="468" y="700" type="line"/>
      <point x="319" y="700" type="line"/>
    </contour>
    <contour>
      <point x="125" y="-209" type="line"/>
      <point x="274" y="-209" type="line"/>
      <point x="362" y="203" type="line"/>
      <point x="213" y="203" type="line"/>
    </contour>
  </outline>
</glyph>
<glyph name="copyright" format="2">
  <advance width="600"/>
  <unicode hex="00A9"/>
  <outline>
    <contour>
      <point x="307" y="161" type="curve" smooth="yes"/>
      <point x="357" y="161"/>
      <point x="405" y="182"/>
      <point x="440" y="221" type="curve"/>
      <point x="394" y="296" type="line"/>
      <point x="367" y="270"/>
      <point x="344" y="258"/>
      <point x="319" y="258" type="curve" smooth="yes"/>
      <point x="280" y="258"/>
      <point x="254" y="288"/>
      <point x="254" y="334" type="curve" smooth="yes"/>
      <point x="254" y="392"/>
      <point x="293" y="445"/>
      <point x="345" y="445" type="curve" smooth="yes"/>
      <point x="375" y="445"/>
      <point x="400" y="428"/>
      <point x="417" y="400" type="curve"/>
      <point x="490" y="463" type="line"/>
      <point x="455" y="516"/>
      <point x="403" y="542"/>
      <point x="351" y="542" type="curve" smooth="yes"/>
      <point x="245" y="542"/>
      <point x="154" y="440"/>
      <point x="154" y="322" type="curve" smooth="yes"/>
      <point x="154" y="224"/>
      <point x="220" y="161"/>
    </contour>
    <contour>
      <point x="272" y="-11" type="curve" smooth="yes"/>
      <point x="471" y="-11"/>
      <point x="609" y="194"/>
      <point x="609" y="424" type="curve" smooth="yes"/>
      <point x="609" y="578"/>
      <point x="525" y="711"/>
      <point x="366" y="711" type="curve" smooth="yes"/>
      <point x="167" y="711"/>
      <point x="29" y="506"/>
      <point x="29" y="276" type="curve" smooth="yes"/>
      <point x="29" y="122"/>
      <point x="113" y="-11"/>
    </contour>
    <contour>
      <point x="275" y="46" type="curve" smooth="yes"/>
      <point x="147" y="46"/>
      <point x="88" y="155"/>
      <point x="88" y="287" type="curve" smooth="yes"/>
      <point x="88" y="456"/>
      <point x="189" y="654"/>
      <point x="363" y="654" type="curve" smooth="yes"/>
      <point x="491" y="654"/>
      <point x="550" y="545"/>
      <point x="550" y="413" type="curve" smooth="yes"/>
      <point x="550" y="244"/>
      <point x="449" y="46"/>
    </contour>
  </outline>
</glyph>
<glyph name="guillemotleft" format="2">
  <advance width="600"/>
  <unicode hex="00AB"/>
  <outline>
    <contour>
      <point x="120" y="0" type="line"/>
      <point x="279" y="0" type="line"/>
      <point x="160" y="261" type="line"/>
      <point x="386" y="516" type="line"/>
      <point x="230" y="516" type="line"/>
      <point x="1" y="259" type="line"/>
    </contour>
    <contour>
      <point x="385" y="0" type="line"/>
      <point x="544" y="0" type="line"/>
      <point x="425" y="261" type="line"/>
      <point x="651" y="516" type="line"/>
      <point x="495" y="516" type="line"/>
      <point x="266" y="259" type="line"/>
    </contour>
  </outline>
</glyph>
<glyph name="registered" format="2">
  <advance width="600"/>
  <unicode hex="00AE"/>
  <outline>
    <contour>
      <point x="262" y="409" type="line"/>
      <point x="311" y="409" type="line"/>
      <point x="325" y="474" type="line"/>
      <point x="344" y="474" type="line"/>
      <point x="363" y="409" type="line"/>
      <point x="414" y="409" type="line"/>
      <point x="393" y="482" type="line"/>
      <point x="417" y="494"/>
      <point x="432" y="519"/>
      <point x="432" y="544" type="curve" smooth="yes"/>
      <point x="432" y="577"/>
      <point x="412" y="597"/>
      <point x="379" y="597" type="curve" smooth="yes"/>
      <point x="302" y="597" type="line"/>
    </contour>
    <contour>
      <point x="364" y="557" type="line" smooth="yes"/>
      <point x="377" y="557"/>
      <point x="383" y="551"/>
      <point x="383" y="537" type="curve" smooth="yes"/>
      <point x="383" y="522"/>
      <point x="373" y="511"/>
      <point x="358" y="511" type="curve" smooth="yes"/>
      <point x="333" y="511" type="line"/>
      <point x="342" y="557" type="line"/>
    </contour>
    <contour>
      <point x="330" y="293" type="curve" smooth="yes"/>
      <point x="447" y="293"/>
      <point x="550" y="403"/>
      <point x="550" y="527" type="curve" smooth="yes"/>
      <point x="550" y="633"/>
      <point x="476" y="711"/>
      <point x="375" y="711" type="curve" smooth="yes"/>
      <point x="257" y="711"/>
      <point x="154" y="602"/>
      <point x="154" y="477" type="curve" smooth="yes"/>
      <point x="154" y="370"/>
      <point x="228" y="293"/>
    </contour>
    <contour>
      <point x="333" y="340" type="curve" smooth="yes"/>
      <point x="257" y="340"/>
      <point x="205" y="395"/>
      <point x="205" y="477" type="curve" smooth="yes"/>
      <point x="205" y="581"/>
      <point x="277" y="664"/>
      <point x="370" y="664" type="curve" smooth="yes"/>
      <point x="447" y="664"/>
      <point x="499" y="609"/>
      <point x="499" y="527" type="curve" smooth="yes"/>
      <point x="499" y="423"/>
      <point x="425" y="340"/>
    </contour>
  </outline>
</glyph>
<glyph name="macron" format="2">
  <advance width="600"/>
  <unicode hex="00AF"/>
  <anchor x="356" y="516" name="_top"/>
  <outline>
    <contour>
      <point x="216" y="626" type="line"/>
      <point x="538" y="626" type="line"/>
      <point x="560" y="726" type="line"/>
      <point x="238" y="726" type="line"/>
    </contour>
  </outline>
</glyph>
<glyph name="degree" format="2">
  <advance width="600"/>
  <unicode hex="00B0"/>
  <outline>
    <contour>
      <point x="351" y="416" type="curve" smooth="yes"/>
      <point x="439" y="416"/>
      <point x="514" y="492"/>
      <point x="514" y="580" type="curve" smooth="yes"/>
      <point x="514" y="656"/>
      <point x="457" y="710"/>
      <point x="379" y="710" type="curve" smooth="yes"/>
      <point x="292" y="710"/>
      <point x="217" y="634"/>
      <point x="217" y="546" type="curve" smooth="yes"/>
      <point x="217" y="471"/>
      <point x="273" y="416"/>
    </contour>
    <contour>
      <point x="356" y="496" type="curve" smooth="yes"/>
      <point x="326" y="496"/>
      <point x="300" y="523"/>
      <point x="300" y="556" type="curve" smooth="yes"/>
      <point x="300" y="596"/>
      <point x="333" y="629"/>
      <point x="373" y="629" type="curve" smooth="yes"/>
      <point x="406" y="629"/>
      <point x="431" y="603"/>
      <point x="431" y="570" type="curve" smooth="yes"/>
      <point x="431" y="529"/>
      <point x="397" y="496"/>
    </contour>
  </outline>
</glyph>
<glyph name="acute" format="2">
  <advance width="600"/>
  <unicode hex="00B4"/>
  <outline>
    <contour>
      <point x="281" y="601" type="line"/>
      <point x="425" y="601" type="line"/>
      <point x="642" y="747" type="line"/>
      <point x="448" y="747" type="line"/>
    </contour>
  </outline>
</glyph>
<glyph name="uni00B5" format="2">
  <advance width="600"/>
  <unicode hex="00B5"/>
  <outline>
    <contour>
      <point x="-48" y="-209" type="line"/>
      <point x="111" y="-209" type="line"/>
      <point x="156" y="-5" type="line"/>
      <point x="161" y="-6"/>
      <point x="167" y="-6"/>
      <point x="173" y="-6" type="curve" smooth="yes"/>
      <point x="236" y="-6"/>
      <point x="294" y="24"/>
      <point x="342" y="80" type="curve"/>
      <point x="325" y="0" type="line"/>
      <point x="484" y="0" type="line"/>
      <point x="596" y="516" type="line"/>
      <point x="437" y="516" type="line"/>
      <point x="359" y="158" type="line"/>
      <point x="332" y="131"/>
      <point x="305" y="119"/>
      <point x="274" y="119" type="curve" smooth="yes"/>
      <point x="220" y="119"/>
      <point x="192" y="160"/>
      <point x="205" y="219" type="curve"/>
      <point x="270" y="516" type="line"/>
      <point x="111" y="516" type="line"/>
    </contour>
  </outline>
</glyph>
<glyph name="cedilla" format="2">
  <advance width="600"/>
  <unicode hex="00B8"/>
  <guideline x="297" y="0" angle="77.99999999999999" color="0.999,0.001,0.001,0.999" identifier="eAwEMm5V8S"/>
  <outline>
    <contour>
      <point x="207" y="-253" type="curve"/>
      <point x="284" y="-253"/>
      <point x="345" y="-201"/>
      <point x="345" y="-136" type="curve"/>
      <point x="345" y="-94"/>
      <point x="314" y="-66"/>
      <point x="260" y="-59" type="curve"/>
      <point x="286" y="0" type="line"/>
      <point x="213" y="0" type="line"/>
      <point x="166" y="-109" type="line"/>
      <point x="207" y="-109" type="line" smooth="yes"/>
      <point x="238" y="-109"/>
      <point x="258" y="-123"/>
      <point x="258" y="-144" type="curve"/>
      <point x="258" y="-167"/>
      <point x="237" y="-182"/>
      <point x="205" y="-182" type="curve"/>
      <point x="175" y="-182"/>
      <point x="147" y="-170"/>
      <point x="128" y="-150" type="curve"/>
      <point x="73" y="-205" type="line"/>
      <point x="103" y="-238"/>
      <point x="147" y="-253"/>
    </contour>
  </outline>
</glyph>
<glyph name="guillemotright" format="2">
  <advance width="600"/>
  <unicode hex="00BB"/>
  <outline>
    <contour>
      <point x="480" y="516" type="line"/>
      <point x="321" y="516" type="line"/>
      <point x="440" y="255" type="line"/>
      <point x="214" y="0" type="line"/>
      <point x="370" y="0" type="line"/>
      <point x="599" y="257" type="line"/>
    </contour>
    <contour>
      <point x="215" y="516" type="line"/>
      <point x="56" y="516" type="line"/>
      <point x="175" y="255" type="line"/>
      <point x="-51" y="0" type="line"/>
      <point x="105" y="0" type="line"/>
      <point x="334" y="257" type="line"/>
    </contour>
  </outline>
</glyph>
<glyph name="onequarter" format="2">
  <advance width="600"/>
  <unicode hex="00BC"/>
  <outline>
    <contour>
      <point x="130" y="416" type="line"/>
      <point x="215" y="416" type="line"/>
      <point x="275" y="700" type="line"/>
      <point x="222" y="700" type="line"/>
      <point x="121" y="661" type="line"/>
      <point x="105" y="586" type="line"/>
      <point x="171" y="611" type="line"/>
    </contour>
    <contour>
      <point x="406" y="0" type="line"/>
      <point x="490" y="0" type="line"/>
      <point x="502" y="56" type="line"/>
      <point x="536" y="56" type="line"/>
      <point x="550" y="122" type="line"/>
      <point x="516" y="122" type="line"/>
      <point x="550" y="284" type="line"/>
      <point x="452" y="284" type="line"/>
      <point x="284" y="125" type="line"/>
      <point x="270" y="56" type="line"/>
      <point x="418" y="56" type="line"/>
    </contour>
    <contour>
      <point x="368" y="122" type="line"/>
      <point x="448" y="197" type="line"/>
      <point x="432" y="122" type="line"/>
    </contour>
    <component base="fraction" xOffset="6"/>
  </outline>
</glyph>
<glyph name="onehalf" format="2">
  <advance width="600"/>
  <unicode hex="00BD"/>
  <outline>
    <contour>
      <point x="130" y="416" type="line"/>
      <point x="215" y="416" type="line"/>
      <point x="275" y="700" type="line"/>
      <point x="222" y="700" type="line"/>
      <point x="121" y="661" type="line"/>
      <point x="105" y="586" type="line"/>
      <point x="171" y="611" type="line"/>
    </contour>
    <contour>
      <point x="280" y="0" type="line"/>
      <point x="498" y="0" type="line"/>
      <point x="514" y="70" type="line"/>
      <point x="410" y="70" type="line"/>
      <point x="473" y="121" type="line" smooth="yes"/>
      <point x="511" y="152"/>
      <point x="529" y="176"/>
      <point x="529" y="208" type="curve" smooth="yes"/>
      <point x="529" y="254"/>
      <point x="487" y="288"/>
      <point x="426" y="288" type="curve" smooth="yes"/>
      <point x="384" y="288"/>
      <point x="343" y="268"/>
      <point x="313" y="245" type="curve"/>
      <point x="350" y="186" type="line"/>
      <point x="373" y="202"/>
      <point x="397" y="215"/>
      <point x="420" y="215" type="curve" smooth="yes"/>
      <point x="436" y="215"/>
      <point x="446" y="207"/>
      <point x="446" y="196" type="curve" smooth="yes"/>
      <point x="446" y="186"/>
      <point x="439" y="176"/>
      <point x="422" y="162" type="curve" smooth="yes"/>
      <point x="292" y="59" type="line"/>
    </contour>
    <component base="fraction" xOffset="-22"/>
  </outline>
</glyph>
<glyph name="threequarters" format="2">
  <advance width="600"/>
  <unicode hex="00BE"/>
  <outline>
    <contour>
      <point x="195" y="416" type="curve" smooth="yes"/>
      <point x="263" y="416"/>
      <point x="312" y="452"/>
      <point x="312" y="500" type="curve" smooth="yes"/>
      <point x="312" y="527"/>
      <point x="294" y="547"/>
      <point x="267" y="555" type="curve"/>
      <point x="307" y="563"/>
      <point x="335" y="592"/>
      <point x="335" y="630" type="curve" smooth="yes"/>
      <point x="335" y="676"/>
      <point x="294" y="708"/>
      <point x="228" y="708" type="curve" smooth="yes"/>
      <point x="185" y="708"/>
      <point x="138" y="691"/>
      <point x="108" y="666" type="curve"/>
      <point x="144" y="607" type="line"/>
      <point x="169" y="623"/>
      <point x="195" y="634"/>
      <point x="219" y="634" type="curve" smooth="yes"/>
      <point x="238" y="634"/>
      <point x="249" y="626"/>
      <point x="249" y="614" type="curve" smooth="yes"/>
      <point x="249" y="600"/>
      <point x="237" y="591"/>
      <point x="210" y="591" type="curve" smooth="yes"/>
      <point x="189" y="591" type="line"/>
      <point x="174" y="525" type="line"/>
      <point x="203" y="525" type="line" smooth="yes"/>
      <point x="221" y="525"/>
      <point x="231" y="518"/>
      <point x="231" y="508" type="curve" smooth="yes"/>
      <point x="231" y="497"/>
      <point x="219" y="488"/>
      <point x="196" y="488" type="curve" smooth="yes"/>
      <point x="167" y="488"/>
      <point x="141" y="502"/>
      <point x="125" y="523" type="curve"/>
      <point x="72" y="473" type="line"/>
      <point x="96" y="438"/>
      <point x="141" y="416"/>
    </contour>
    <contour>
      <point x="406" y="0" type="line"/>
      <point x="490" y="0" type="line"/>
      <point x="502" y="56" type="line"/>
      <point x="536" y="56" type="line"/>
      <point x="550" y="122" type="line"/>
      <point x="516" y="122" type="line"/>
      <point x="550" y="284" type="line"/>
      <point x="452" y="284" type="line"/>
      <point x="284" y="125" type="line"/>
      <point x="270" y="56" type="line"/>
      <point x="418" y="56" type="line"/>
    </contour>
    <contour>
      <point x="368" y="122" type="line"/>
      <point x="448" y="197" type="line"/>
      <point x="432" y="122" type="line"/>
    </contour>
    <component base="fraction" xOffset="28"/>
  </outline>
</glyph>
<glyph name="questiondown" format="2">
  <advance width="600"/>
  <unicode hex="00BF"/>
  <outline>
    <contour>
      <point x="391" y="247" type="curve"/>
      <point x="264" y="247" type="line"/>
      <point x="255" y="160"/>
      <point x="14" y="144"/>
      <point x="14" y="-48" type="curve" smooth="yes"/>
      <point x="14" y="-149"/>
      <point x="101" y="-219"/>
      <point x="226" y="-219" type="curve" smooth="yes"/>
      <point x="331" y="-219"/>
      <point x="432" y="-161"/>
      <point x="486" y="-64" type="curve"/>
      <point x="373" y="-8" type="line"/>
      <point x="347" y="-54"/>
      <point x="298" y="-84"/>
      <point x="247" y="-84" type="curve" smooth="yes"/>
      <point x="197" y="-84"/>
      <point x="166" y="-61"/>
      <point x="166" y="-24" type="curve" smooth="yes"/>
      <point x="166" y="83"/>
      <point x="369" y="70"/>
    </contour>
    <contour>
      <point x="362" y="502" type="curve" smooth="yes"/>
      <point x="306" y="502"/>
      <point x="256" y="449"/>
      <point x="256" y="390" type="curve" smooth="yes"/>
      <point x="256" y="340"/>
      <point x="291" y="301"/>
      <point x="338" y="301" type="curve" smooth="yes"/>
      <point x="396" y="301"/>
      <point x="446" y="352"/>
      <point x="446" y="413" type="curve" smooth="yes"/>
      <point x="446" y="463"/>
      <point x="411" y="502"/>
    </contour>
  </outline>
</glyph>
<glyph name="multiply" format="2">
  <advance width="600"/>
  <unicode hex="00D7"/>
  <outline>
    <contour>
      <point x="132" y="133" type="line"/>
      <point x="304" y="283" type="line"/>
      <point x="413" y="132" type="line"/>
      <point x="502" y="209" type="line"/>
      <point x="393" y="360" type="line"/>
      <point x="565" y="510" type="line"/>
      <point x="510" y="585" type="line"/>
      <point x="338" y="436" type="line"/>
      <point x="230" y="586" type="line"/>
      <point x="140" y="509" type="line"/>
      <point x="249" y="358" type="line"/>
      <point x="76" y="208" type="line"/>
    </contour>
  </outline>
</glyph>
<glyph name="Oslash" format="2">
  <advance width="600"/>
  <unicode hex="00D8"/>
  <outline>
    <contour>
      <point x="-35" y="0" type="line"/>
      <point x="100" y="0" type="line"/>
      <point x="131" y="38" type="line"/>
      <point x="169" y="7"/>
      <point x="218" y="-11"/>
      <point x="273" y="-11" type="curve" smooth="yes"/>
      <point x="459" y="-11"/>
      <point x="601" y="182"/>
      <point x="601" y="434" type="curve" smooth="yes"/>
      <point x="601" y="487"/>
      <point x="591" y="535"/>
      <point x="572" y="576" type="curve"/>
      <point x="674" y="700" type="line"/>
      <point x="539" y="700" type="line"/>
      <point x="507" y="662" type="line"/>
      <point x="469" y="693"/>
      <point x="420" y="711"/>
      <point x="365" y="711" type="curve" smooth="yes"/>
      <point x="179" y="711"/>
      <point x="37" y="518"/>
      <point x="37" y="266" type="curve" smooth="yes"/>
      <point x="37" y="212"/>
      <point x="47" y="164"/>
      <point x="66" y="123" type="curve"/>
    </contour>
    <contour>
      <point x="209" y="326" type="curve" smooth="yes"/>
      <point x="221" y="461"/>
      <point x="279" y="559"/>
      <point x="351" y="559" type="curve" smooth="yes"/>
      <point x="372" y="559"/>
      <point x="390" y="550"/>
      <point x="403" y="534" type="curve"/>
      <point x="207" y="295" type="line"/>
      <point x="207" y="306"/>
      <point x="208" y="316"/>
    </contour>
    <contour>
      <point x="287" y="141" type="curve" smooth="yes"/>
      <point x="266" y="141"/>
      <point x="249" y="149"/>
      <point x="235" y="165" type="curve"/>
      <point x="430" y="403" type="line"/>
      <point x="429" y="388"/>
      <point x="428" y="374"/>
      <point x="427" y="361" type="curve" smooth="yes"/>
      <point x="412" y="233"/>
      <point x="357" y="141"/>
    </contour>
  </outline>
</glyph>
<glyph name="Thorn" format="2">
  <advance width="600"/>
  <unicode hex="00DE"/>
  <outline>
    <contour>
      <point x="-8" y="0" type="line"/>
      <point x="164" y="0" type="line"/>
      <point x="190" y="122" type="line"/>
      <point x="309" y="122" type="line" smooth="yes"/>
      <point x="464" y="122"/>
      <point x="583" y="228"/>
      <point x="583" y="367" type="curve" smooth="yes"/>
      <point x="583" y="495"/>
      <point x="492" y="578"/>
      <point x="353" y="578" type="curve" smooth="yes"/>
      <point x="287" y="578" type="line"/>
      <point x="313" y="700" type="line"/>
      <point x="141" y="700" type="line"/>
    </contour>
    <contour>
      <point x="219" y="259" type="line"/>
      <point x="257" y="436" type="line"/>
      <point x="313" y="436" type="line" smooth="yes"/>
      <point x="375" y="436"/>
      <point x="411" y="406"/>
      <point x="411" y="355" type="curve" smooth="yes"/>
      <point x="411" y="297"/>
      <point x="365" y="259"/>
      <point x="295" y="259" type="curve" smooth="yes"/>
    </contour>
  </outline>
</glyph>
<glyph name="germandbls" format="2">
  <advance width="600"/>
  <unicode hex="00DF"/>
  <outline>
    <contour>
      <point x="372" y="-11" type="curve"/>
      <point x="494" y="-11"/>
      <point x="586" y="64"/>
      <point x="586" y="164" type="curve" smooth="yes"/>
      <point x="586" y="300"/>
      <point x="425" y="292"/>
      <point x="425" y="345" type="curve" smooth="yes"/>
      <point x="425" y="400"/>
      <point x="590" y="403"/>
      <point x="590" y="559" type="curve" smooth="yes"/>
      <point x="590" y="664"/>
      <point x="492" y="737"/>
      <point x="364" y="737" type="curve" smooth="yes"/>
      <point x="220" y="737"/>
      <point x="130" y="655"/>
      <point x="104" y="533" type="curve" smooth="yes"/>
      <point x="-9" y="0" type="line"/>
      <point x="152" y="0" type="line"/>
      <point x="261" y="513" type="line" smooth="yes"/>
      <point x="274" y="572"/>
      <point x="300" y="603"/>
      <point x="353" y="603" type="curve" smooth="yes"/>
      <point x="405" y="603"/>
      <point x="431" y="574"/>
      <point x="431" y="535" type="curve" smooth="yes"/>
      <point x="431" y="452"/>
      <point x="272" y="448"/>
      <point x="272" y="323" type="curve" smooth="yes"/>
      <point x="272" y="209"/>
      <point x="437" y="217"/>
      <point x="437" y="150" type="curve" smooth="yes"/>
      <point x="437" y="127"/>
      <point x="414" y="103"/>
      <point x="376" y="103" type="curve"/>
      <point x="340" y="103"/>
      <point x="305" y="125"/>
      <point x="278" y="158" type="curve"/>
      <point x="194" y="65" type="line"/>
      <point x="231" y="17"/>
      <point x="293" y="-11"/>
    </contour>
  </outline>
</glyph>
<glyph name="ccedilla" format="2">
  <advance width="600"/>
  <unicode hex="00E7"/>
  <outline>
    <contour>
      <point x="245" y="-253" type="curve"/>
      <point x="322" y="-253"/>
      <point x="383" y="-201"/>
      <point x="383" y="-136" type="curve"/>
      <point x="383" y="-94"/>
      <point x="352" y="-66"/>
      <point x="298" y="-59" type="curve"/>
      <point x="320" y="-10" type="line"/>
      <point x="408" y="-3"/>
      <point x="482" y="37"/>
      <point x="534" y="106" type="curve"/>
      <point x="437" y="192" type="line"/>
      <point x="400" y="148"/>
      <point x="359" y="127"/>
      <point x="313" y="127" type="curve" smooth="yes"/>
      <point x="244" y="127"/>
      <point x="197" y="174"/>
      <point x="197" y="243" type="curve" smooth="yes"/>
      <point x="197" y="325"/>
      <point x="253" y="385"/>
      <point x="330" y="385" type="curve" smooth="yes"/>
      <point x="380" y="385"/>
      <point x="425" y="356"/>
      <point x="451" y="307" type="curve"/>
      <point x="577" y="391" type="line"/>
      <point x="534" y="474"/>
      <point x="443" y="524"/>
      <point x="335" y="524" type="curve" smooth="yes"/>
      <point x="170" y="524"/>
      <point x="39" y="392"/>
      <point x="39" y="225" type="curve" smooth="yes"/>
      <point x="39" y="104"/>
      <point x="123" y="10"/>
      <point x="248" y="-8" type="curve"/>
      <point x="204" y="-109" type="line"/>
      <point x="245" y="-109" type="line" smooth="yes"/>
      <point x="276" y="-109"/>
      <point x="296" y="-123"/>
      <point x="296" y="-144" type="curve"/>
      <point x="296" y="-167"/>
      <point x="275" y="-182"/>
      <point x="243" y="-182" type="curve"/>
      <point x="213" y="-182"/>
      <point x="185" y="-170"/>
      <point x="166" y="-150" type="curve"/>
      <point x="111" y="-205" type="line"/>
      <point x="140" y="-237"/>
      <point x="184" y="-253"/>
    </contour>
  </outline>
</glyph>
<glyph name="eth" format="2">
  <advance width="600"/>
  <unicode hex="00F0"/>
  <outline>
    <contour>
      <point x="267" y="-9" type="curve" smooth="yes"/>
      <point x="435" y="-9"/>
      <point x="560" y="151"/>
      <point x="560" y="366" type="curve" smooth="yes"/>
      <point x="560" y="463"/>
      <point x="539" y="550"/>
      <point x="497" y="624" type="curve"/>
      <point x="576" y="665" type="line"/>
      <point x="541" y="747" type="line"/>
      <point x="445" y="697" type="line"/>
      <point x="420" y="726"/>
      <point x="391" y="753"/>
      <point x="357" y="777" type="curve"/>
      <point x="256" y="680" type="line"/>
      <point x="279" y="665"/>
      <point x="300" y="649"/>
      <point x="318" y="630" type="curve"/>
      <point x="251" y="595" type="line"/>
      <point x="284" y="514" type="line"/>
      <point x="374" y="560" type="line"/>
      <point x="402" y="514"/>
      <point x="420" y="459"/>
      <point x="426" y="396" type="curve"/>
      <point x="403" y="437"/>
      <point x="344" y="466"/>
      <point x="275" y="466" type="curve" smooth="yes"/>
      <point x="140" y="466"/>
      <point x="38" y="359"/>
      <point x="38" y="217" type="curve" smooth="yes"/>
      <point x="38" y="83"/>
      <point x="131" y="-9"/>
    </contour>
    <contour>
      <point x="272" y="128" type="curve" smooth="yes"/>
      <point x="220" y="128"/>
      <point x="180" y="170"/>
      <point x="180" y="226" type="curve" smooth="yes"/>
      <point x="180" y="290"/>
      <point x="233" y="345"/>
      <point x="295" y="345" type="curve" smooth="yes"/>
      <point x="345" y="345"/>
      <point x="384" y="303"/>
      <point x="384" y="248" type="curve" smooth="yes"/>
      <point x="384" y="184"/>
      <point x="332" y="128"/>
    </contour>
  </outline>
</glyph>
<glyph name="oslash" format="2">
  <advance width="600"/>
  <unicode hex="00F8"/>
  <outline>
    <contour>
      <point x="277" y="-10" type="curve" smooth="yes"/>
      <point x="435" y="-10"/>
      <point x="565" y="123"/>
      <point x="565" y="284" type="curve" smooth="yes"/>
      <point x="565" y="335"/>
      <point x="551" y="381"/>
      <point x="527" y="419" type="curve"/>
      <point x="631" y="516" type="line"/>
      <point x="522" y="516" type="line"/>
      <point x="477" y="474" type="line"/>
      <point x="436" y="506"/>
      <point x="383" y="524"/>
      <point x="323" y="524" type="curve" smooth="yes"/>
      <point x="163" y="524"/>
      <point x="35" y="393"/>
      <point x="35" y="231" type="curve" smooth="yes"/>
      <point x="35" y="180"/>
      <point x="49" y="135"/>
      <point x="73" y="97" type="curve"/>
      <point x="-31" y="0" type="line"/>
      <point x="76" y="0" type="line"/>
      <point x="122" y="42" type="line"/>
      <point x="163" y="9"/>
      <point x="217" y="-10"/>
    </contour>
    <contour>
      <point x="194" y="209" type="line"/>
      <point x="192" y="219"/>
      <point x="191" y="228"/>
      <point x="191" y="239" type="curve" smooth="yes"/>
      <point x="191" y="323"/>
      <point x="245" y="389"/>
      <point x="313" y="389" type="curve" smooth="yes"/>
      <point x="335" y="389"/>
      <point x="353" y="383"/>
      <point x="368" y="373" type="curve"/>
    </contour>
    <contour>
      <point x="286" y="127" type="curve" smooth="yes"/>
      <point x="264" y="127"/>
      <point x="246" y="133"/>
      <point x="231" y="144" type="curve"/>
      <point x="407" y="307" type="line"/>
      <point x="408" y="299"/>
      <point x="409" y="290"/>
      <point x="409" y="280" type="curve" smooth="yes"/>
      <point x="409" y="192"/>
      <point x="357" y="127"/>
    </contour>
  </outline>
</glyph>
<glyph name="Dcroat" format="2">
  <advance width="600"/>
  <unicode hex="0110"/>
  <outline>
    <contour>
      <point x="7" y="0" type="line"/>
      <point x="226" y="0" type="line" smooth="yes"/>
      <point x="435" y="0"/>
      <point x="600" y="171"/>
      <point x="600" y="421" type="curve" smooth="yes"/>
      <point x="600" y="588"/>
      <point x="494" y="700"/>
      <point x="331" y="700" type="curve" smooth="yes"/>
      <point x="156" y="700" type="line"/>
      <point x="95" y="412" type="line"/>
      <point x="39" y="412" type="line"/>
      <point x="13" y="293" type="line"/>
      <point x="69" y="293" type="line"/>
    </contour>
    <contour>
      <point x="210" y="147" type="line"/>
      <point x="241" y="293" type="line"/>
      <point x="307" y="293" type="line"/>
      <point x="333" y="412" type="line"/>
      <point x="267" y="412" type="line"/>
      <point x="297" y="553" type="line"/>
      <point x="313" y="553" type="line" smooth="yes"/>
      <point x="389" y="553"/>
      <point x="430" y="513"/>
      <point x="430" y="419" type="curve" smooth="yes"/>
      <point x="430" y="262"/>
      <point x="349" y="147"/>
      <point x="229" y="147" type="curve" smooth="yes"/>
    </contour>
  </outline>
</glyph>
<glyph name="dcroat" format="2">
  <advance width="600"/>
  <unicode hex="0111"/>
  <outline>
    <contour>
      <point x="209" y="-3" type="curve"/>
      <point x="257" y="-3"/>
      <point x="301" y="12"/>
      <point x="342" y="59" type="curve"/>
      <point x="329" y="0" type="line"/>
      <point x="486" y="0" type="line"/>
      <point x="605" y="560" type="line"/>
      <point x="663" y="560" type="line"/>
      <point x="682" y="648" type="line"/>
      <point x="623" y="648" type="line"/>
      <point x="642" y="737" type="line"/>
      <point x="479" y="712" type="line"/>
      <point x="465" y="648" type="line"/>
      <point x="338" y="648" type="line"/>
      <point x="319" y="560" type="line"/>
      <point x="447" y="560" type="line"/>
      <point x="425" y="458" type="line"/>
      <point x="396" y="496"/>
      <point x="345" y="519"/>
      <point x="291" y="519" type="curve" smooth="yes"/>
      <point x="150" y="519"/>
      <point x="31" y="384"/>
      <point x="31" y="226" type="curve" smooth="yes"/>
      <point x="31" y="99"/>
      <point x="106" y="-3"/>
    </contour>
    <contour>
      <point x="279" y="124" type="curve"/>
      <point x="219" y="124"/>
      <point x="186" y="173"/>
      <point x="186" y="236" type="curve" smooth="yes"/>
      <point x="186" y="322"/>
      <point x="241" y="389"/>
      <point x="315" y="389" type="curve" smooth="yes"/>
      <point x="350" y="389"/>
      <point x="380" y="375"/>
      <point x="402" y="349" type="curve"/>
      <point x="362" y="159" type="line"/>
      <point x="338" y="137"/>
      <point x="308" y="124"/>
    </contour>
  </outline>
</glyph>
<glyph name="Eogonek" format="2">
  <advance width="600"/>
  <unicode hex="0118"/>
  <outline>
    <contour>
      <point x="17" y="0" type="line"/>
      <point x="425" y="0" type="line"/>
      <point x="347" y="-47"/>
      <point x="309" y="-97"/>
      <point x="309" y="-153" type="curve" smooth="yes"/>
      <point x="309" y="-201"/>
      <point x="343" y="-231"/>
      <point x="397" y="-231" type="curve" smooth="yes"/>
      <point x="432" y="-231"/>
      <point x="468" y="-222"/>
      <point x="493" y="-208" type="curve"/>
      <point x="488" y="-138" type="line"/>
      <point x="477" y="-145"/>
      <point x="459" y="-149"/>
      <point x="441" y="-149" type="curve" smooth="yes"/>
      <point x="416" y="-149"/>
      <point x="401" y="-136"/>
      <point x="401" y="-113" type="curve" smooth="yes"/>
      <point x="401" y="-76"/>
      <point x="436" y="-38"/>
      <point x="506" y="0" type="curve"/>
      <point x="538" y="144" type="line"/>
      <point x="216" y="144" type="line"/>
      <point x="245" y="283" type="line"/>
      <point x="450" y="283" type="line"/>
      <point x="480" y="423" type="line"/>
      <point x="275" y="423" type="line"/>
      <point x="303" y="556" type="line"/>
      <point x="619" y="556" type="line"/>
      <point x="651" y="700" type="line"/>
      <point x="166" y="700" type="line"/>
    </contour>
  </outline>
</glyph>
<glyph name="gcommaaccent" format="2">
  <advance width="600"/>
  <unicode hex="0123"/>
  <outline>
    <contour>
      <point x="533" y="842" type="line"/>
      <point x="424" y="842" type="line"/>
      <point x="284" y="627" type="line"/>
      <point x="425" y="627" type="line"/>
    </contour>
    <component base="g"/>
  </outline>
</glyph>
<glyph name="iogonek" format="2">
  <advance width="600"/>
  <unicode hex="012F"/>
  <outline>
    <contour>
      <point x="379" y="596" type="curve" smooth="yes"/>
      <point x="441" y="596"/>
      <point x="492" y="647"/>
      <point x="492" y="709" type="curve" smooth="yes"/>
      <point x="492" y="759"/>
      <point x="452" y="798"/>
      <point x="402" y="798" type="curve" smooth="yes"/>
      <point x="343" y="798"/>
      <point x="290" y="745"/>
      <point x="290" y="684" type="curve" smooth="yes"/>
      <point x="290" y="634"/>
      <point x="328" y="596"/>
    </contour>
    <contour>
      <point x="341" y="-231" type="curve" smooth="yes"/>
      <point x="376" y="-231"/>
      <point x="412" y="-222"/>
      <point x="437" y="-208" type="curve"/>
      <point x="432" y="-138" type="line"/>
      <point x="421" y="-145"/>
      <point x="403" y="-149"/>
      <point x="385" y="-149" type="curve" smooth="yes"/>
      <point x="360" y="-149"/>
      <point x="345" y="-136"/>
      <point x="345" y="-113" type="curve" smooth="yes"/>
      <point x="345" y="-76"/>
      <point x="380" y="-38"/>
      <point x="449" y="0" type="curve"/>
      <point x="470" y="3"/>
      <point x="489" y="8"/>
      <point x="501" y="14" type="curve"/>
      <point x="529" y="145" type="line"/>
      <point x="494" y="133"/>
      <point x="464" y="129"/>
      <point x="434" y="129" type="curve" smooth="yes"/>
      <point x="381" y="129"/>
      <point x="356" y="152"/>
      <point x="370" y="218" type="curve" smooth="yes"/>
      <point x="434" y="516" type="line"/>
      <point x="94" y="516" type="line"/>
      <point x="67" y="391" type="line"/>
      <point x="245" y="391" type="line"/>
      <point x="207" y="220" type="line" smooth="yes"/>
      <point x="176" y="79"/>
      <point x="235" y="1"/>
      <point x="358" y="-6" type="curve"/>
      <point x="288" y="-51"/>
      <point x="253" y="-99"/>
      <point x="253" y="-153" type="curve" smooth="yes"/>
      <point x="253" y="-201"/>
      <point x="287" y="-231"/>
    </contour>
  </outline>
</glyph>
<glyph name="dotlessi" format="2">
  <advance width="600"/>
  <unicode hex="0131"/>
  <anchor x="366" y="516" name="top"/>
  <anchor x="450" y="0" name="bottom"/>
  <outline>
    <contour>
      <point x="377" y="-7" type="curve" smooth="yes"/>
      <point x="421" y="-7"/>
      <point x="476" y="2"/>
      <point x="501" y="14" type="curve"/>
      <point x="529" y="145" type="line"/>
      <point x="494" y="133"/>
      <point x="464" y="129"/>
      <point x="434" y="129" type="curve" smooth="yes"/>
      <point x="381" y="129"/>
      <point x="356" y="152"/>
      <point x="370" y="218" type="curve"/>
      <point x="434" y="516" type="line"/>
      <point x="94" y="516" type="line"/>
      <point x="67" y="391" type="line"/>
      <point x="245" y="391" type="line"/>
      <point x="207" y="220" type="line"/>
      <point x="174" y="72"/>
      <point x="241" y="-7"/>
    </contour>
  </outline>
</glyph>
<glyph name="ij" format="2">
  <advance width="600"/>
  <unicode hex="0133"/>
  <outline>
    <contour>
      <point x="242" y="596" type="curve" smooth="yes"/>
      <point x="304" y="596"/>
      <point x="355" y="647"/>
      <point x="355" y="709" type="curve" smooth="yes"/>
      <point x="355" y="759"/>
      <point x="315" y="798"/>
      <point x="265" y="798" type="curve" smooth="yes"/>
      <point x="206" y="798"/>
      <point x="153" y="745"/>
      <point x="153" y="684" type="curve" smooth="yes"/>
      <point x="153" y="634"/>
      <point x="191" y="596"/>
    </contour>
    <contour>
      <point x="523" y="596" type="curve" smooth="yes"/>
      <point x="585" y="596"/>
      <point x="636" y="647"/>
      <point x="636" y="709" type="curve" smooth="yes"/>
      <point x="636" y="759"/>
      <point x="596" y="798"/>
      <point x="546" y="798" type="curve" smooth="yes"/>
      <point x="487" y="798"/>
      <point x="434" y="745"/>
      <point x="434" y="684" type="curve" smooth="yes"/>
      <point x="434" y="634"/>
      <point x="472" y="596"/>
    </contour>
    <contour>
      <point x="25" y="0" type="line"/>
      <point x="187" y="0" type="line"/>
      <point x="297" y="516" type="line"/>
      <point x="135" y="516" type="line"/>
    </contour>
    <contour>
      <point x="259" y="-219" type="curve"/>
      <point x="363" y="-219"/>
      <point x="432" y="-167"/>
      <point x="456" y="-53" type="curve" smooth="yes"/>
      <point x="578" y="516" type="line"/>
      <point x="416" y="516" type="line"/>
      <point x="299" y="-28" type="line" smooth="yes"/>
      <point x="291" y="-63"/>
      <point x="270" y="-81"/>
      <point x="239" y="-81" type="curve"/>
      <point x="219" y="-81"/>
      <point x="195" y="-76"/>
      <point x="175" y="-70" type="curve"/>
      <point x="146" y="-203" type="line"/>
      <point x="177" y="-212"/>
      <point x="219" y="-219"/>
    </contour>
  </outline>
</glyph>
<glyph name="Eng" format="2">
  <advance width="600"/>
  <unicode hex="014A"/>
  <outline>
    <contour>
      <point x="269" y="-219" type="curve" smooth="yes"/>
      <point x="398" y="-219"/>
      <point x="467" y="-153"/>
      <point x="493" y="-25" type="curve" smooth="yes"/>
      <point x="647" y="700" type="line"/>
      <point x="502" y="700" type="line"/>
      <point x="421" y="306" type="line"/>
      <point x="300" y="700" type="line"/>
      <point x="141" y="700" type="line"/>
      <point x="-8" y="0" type="line"/>
      <point x="137" y="0" type="line"/>
      <point x="222" y="408" type="line"/>
      <point x="347" y="6" type="line"/>
      <point x="344" y="-10" type="line" smooth="yes"/>
      <point x="333" y="-66"/>
      <point x="310" y="-85"/>
      <point x="260" y="-85" type="curve" smooth="yes"/>
      <point x="239" y="-85"/>
      <point x="211" y="-79"/>
      <point x="185" y="-69" type="curve"/>
      <point x="157" y="-201" type="line"/>
      <point x="177" y="-210"/>
      <point x="234" y="-219"/>
    </contour>
  </outline>
</glyph>
<glyph name="eng" format="2">
  <advance width="600"/>
  <unicode hex="014B"/>
  <outline>
    <contour>
      <point x="290" y="-219" type="curve" smooth="yes"/>
      <point x="394" y="-219"/>
      <point x="462" y="-159"/>
      <point x="485" y="-52" type="curve" smooth="yes"/>
      <point x="569" y="337" type="line" smooth="yes"/>
      <point x="593" y="447"/>
      <point x="538" y="522"/>
      <point x="434" y="522" type="curve" smooth="yes"/>
      <point x="372" y="522"/>
      <point x="315" y="493"/>
      <point x="266" y="438" type="curve"/>
      <point x="283" y="516" type="line"/>
      <point x="121" y="516" type="line"/>
      <point x="11" y="0" type="line"/>
      <point x="173" y="0" type="line"/>
      <point x="250" y="360" type="line"/>
      <point x="276" y="385"/>
      <point x="303" y="397"/>
      <point x="333" y="397" type="curve" smooth="yes"/>
      <point x="387" y="397"/>
      <point x="415" y="356"/>
      <point x="402" y="297" type="curve" smooth="yes"/>
      <point x="328" y="-42" type="line" smooth="yes"/>
      <point x="321" y="-72"/>
      <point x="303" y="-86"/>
      <point x="269" y="-86" type="curve" smooth="yes"/>
      <point x="250" y="-86"/>
      <point x="234" y="-82"/>
      <point x="221" y="-77" type="curve"/>
      <point x="201" y="-204" type="line"/>
      <point x="217" y="-212"/>
      <point x="256" y="-219"/>
    </contour>
  </outline>
</glyph>
<glyph name="oe" format="2">
  <advance width="600"/>
  <unicode hex="0153"/>
  <outline>
    <contour>
      <point x="451" y="403" type="curve" smooth="yes"/>
      <point x="473" y="403"/>
      <point x="479" y="369"/>
      <point x="468" y="307" type="curve"/>
      <point x="397" y="307" type="line"/>
      <point x="411" y="368"/>
      <point x="430" y="403"/>
    </contour>
    <contour>
      <point x="179" y="115" type="curve" smooth="yes"/>
      <point x="162" y="115"/>
      <point x="153" y="135"/>
      <point x="153" y="174" type="curve" smooth="yes"/>
      <point x="153" y="285"/>
      <point x="191" y="401"/>
      <point x="228" y="401" type="curve" smooth="yes"/>
      <point x="245" y="401"/>
      <point x="254" y="381"/>
      <point x="254" y="342" type="curve" smooth="yes"/>
      <point x="254" y="231"/>
      <point x="216" y="115"/>
    </contour>
    <contour>
      <point x="159" y="-10" type="curve" smooth="yes"/>
      <point x="206" y="-10"/>
      <point x="248" y="10"/>
      <point x="284" y="49" type="curve"/>
      <point x="312" y="11"/>
      <point x="354" y="-9"/>
      <point x="407" y="-9" type="curve" smooth="yes"/>
      <point x="462" y="-9"/>
      <point x="509" y="12"/>
      <point x="559" y="59" type="curve"/>
      <point x="483" y="150" type="line"/>
      <point x="459" y="126"/>
      <point x="441" y="116"/>
      <point x="423" y="116" type="curve" smooth="yes"/>
      <point x="398" y="116"/>
      <point x="384" y="143"/>
      <point x="384" y="193" type="curve" smooth="yes"/>
      <point x="384" y="206"/>
      <point x="384" y="212"/>
      <point x="385" y="218" type="curve"/>
      <point x="584" y="218" type="line"/>
      <point x="598" y="286"/>
      <point x="601" y="318"/>
      <point x="601" y="347" type="curve" smooth="yes"/>
      <point x="601" y="457"/>
      <point x="554" y="525"/>
      <point x="469" y="525" type="curve" smooth="yes"/>
      <point x="422" y="525"/>
      <point x="378" y="504"/>
      <point x="341" y="464" type="curve"/>
      <point x="316" y="503"/>
      <point x="277" y="524"/>
      <point x="227" y="524" type="curve" smooth="yes"/>
      <point x="104" y="524"/>
      <point x="11" y="376"/>
      <point x="11" y="178" type="curve" smooth="yes"/>
      <point x="11" y="60"/>
      <point x="66" y="-10"/>
    </contour>
  </outline>
</glyph>
<glyph name="Scedilla" format="2">
  <advance width="600"/>
  <unicode hex="015E"/>
  <outline>
    <contour>
      <point x="247" y="-253" type="curve"/>
      <point x="324" y="-253"/>
      <point x="385" y="-201"/>
      <point x="385" y="-136" type="curve"/>
      <point x="385" y="-94"/>
      <point x="354" y="-66"/>
      <point x="300" y="-59" type="curve"/>
      <point x="322" y="-10" type="line"/>
      <point x="468" y="-4"/>
      <point x="575" y="90"/>
      <point x="575" y="223" type="curve" smooth="yes"/>
      <point x="575" y="445"/>
      <point x="244" y="399"/>
      <point x="244" y="504" type="curve" smooth="yes"/>
      <point x="244" y="545"/>
      <point x="281" y="571"/>
      <point x="336" y="571" type="curve" smooth="yes"/>
      <point x="405" y="571"/>
      <point x="465" y="542"/>
      <point x="523" y="489" type="curve"/>
      <point x="621" y="602" type="line"/>
      <point x="552" y="671"/>
      <point x="451" y="710"/>
      <point x="343" y="710" type="curve" smooth="yes"/>
      <point x="186" y="710"/>
      <point x="83" y="616"/>
      <point x="83" y="487" type="curve" smooth="yes"/>
      <point x="83" y="253"/>
      <point x="408" y="320"/>
      <point x="408" y="202" type="curve" smooth="yes"/>
      <point x="408" y="158"/>
      <point x="367" y="128"/>
      <point x="310" y="128" type="curve" smooth="yes"/>
      <point x="243" y="128"/>
      <point x="181" y="159"/>
      <point x="98" y="228" type="curve"/>
      <point x="10" y="106" type="line"/>
      <point x="83" y="40"/>
      <point x="166" y="4"/>
      <point x="250" y="-6" type="curve"/>
      <point x="206" y="-109" type="line"/>
      <point x="247" y="-109" type="line" smooth="yes"/>
      <point x="278" y="-109"/>
      <point x="298" y="-123"/>
      <point x="298" y="-144" type="curve"/>
      <point x="298" y="-167"/>
      <point x="277" y="-182"/>
      <point x="245" y="-182" type="curve"/>
      <point x="215" y="-182"/>
      <point x="187" y="-170"/>
      <point x="168" y="-150" type="curve"/>
      <point x="113" y="-205" type="line"/>
      <point x="143" y="-238"/>
      <point x="187" y="-253"/>
    </contour>
  </outline>
</glyph>
<glyph name="Tcedilla" format="2">
  <advance width="600"/>
  <unicode hex="0162"/>
  <outline>
    <contour>
      <point x="159" y="0" type="line"/>
      <point x="209" y="0" type="line"/>
      <point x="162" y="-109" type="line"/>
      <point x="203" y="-109" type="line" smooth="yes"/>
      <point x="234" y="-109"/>
      <point x="254" y="-123"/>
      <point x="254" y="-144" type="curve"/>
      <point x="254" y="-167"/>
      <point x="233" y="-182"/>
      <point x="201" y="-182" type="curve"/>
      <point x="171" y="-182"/>
      <point x="143" y="-170"/>
      <point x="124" y="-150" type="curve"/>
      <point x="69" y="-205" type="line"/>
      <point x="99" y="-238"/>
      <point x="143" y="-253"/>
      <point x="203" y="-253" type="curve"/>
      <point x="280" y="-253"/>
      <point x="341" y="-201"/>
      <point x="341" y="-136" type="curve"/>
      <point x="341" y="-94"/>
      <point x="310" y="-66"/>
      <point x="256" y="-59" type="curve"/>
      <point x="282" y="0" type="line"/>
      <point x="331" y="0" type="line"/>
      <point x="449" y="553" type="line"/>
      <point x="649" y="553" type="line"/>
      <point x="680" y="700" type="line"/>
      <point x="108" y="700" type="line"/>
      <point x="77" y="553" type="line"/>
      <point x="277" y="553" type="line"/>
    </contour>
  </outline>
</glyph>
<glyph name="tcaron" format="2">
  <advance width="600"/>
  <unicode hex="0165"/>
  <outline>
    <contour>
      <point x="462" y="578" type="line"/>
      <point x="551" y="578" type="line"/>
      <point x="637" y="807" type="line"/>
      <point x="512" y="782" type="line"/>
    </contour>
    <component base="t"/>
  </outline>
</glyph>
<glyph name="Tbar" format="2">
  <advance width="600"/>
  <unicode hex="0166"/>
  <outline>
    <contour>
      <point x="159" y="0" type="line"/>
      <point x="331" y="0" type="line"/>
      <point x="389" y="274" type="line"/>
      <point x="511" y="274" type="line"/>
      <point x="538" y="399" type="line"/>
      <point x="416" y="399" type="line"/>
      <point x="449" y="553" type="line"/>
      <point x="649" y="553" type="line"/>
      <point x="680" y="700" type="line"/>
      <point x="108" y="700" type="line"/>
      <point x="77" y="553" type="line"/>
      <point x="277" y="553" type="line"/>
      <point x="244" y="399" type="line"/>
      <point x="122" y="399" type="line"/>
      <point x="95" y="274" type="line"/>
      <point x="217" y="274" type="line"/>
    </contour>
  </outline>
</glyph>
<glyph name="uogonek" format="2">
  <advance width="600"/>
  <unicode hex="0173"/>
  <outline>
    <contour>
      <point x="375" y="-231" type="curve" smooth="yes"/>
      <point x="410" y="-231"/>
      <point x="446" y="-222"/>
      <point x="471" y="-208" type="curve"/>
      <point x="466" y="-138" type="line"/>
      <point x="455" y="-145"/>
      <point x="437" y="-149"/>
      <point x="419" y="-149" type="curve" smooth="yes"/>
      <point x="394" y="-149"/>
      <point x="379" y="-136"/>
      <point x="379" y="-113" type="curve" smooth="yes"/>
      <point x="379" y="-76"/>
      <point x="414" y="-38"/>
      <point x="484" y="0" type="curve"/>
      <point x="596" y="516" type="line"/>
      <point x="437" y="516" type="line"/>
      <point x="359" y="158" type="line"/>
      <point x="332" y="131"/>
      <point x="305" y="119"/>
      <point x="274" y="119" type="curve" smooth="yes"/>
      <point x="220" y="119"/>
      <point x="192" y="160"/>
      <point x="205" y="219" type="curve" smooth="yes"/>
      <point x="269" y="516" type="line"/>
      <point x="110" y="516" type="line"/>
      <point x="38" y="179" type="line" smooth="yes"/>
      <point x="14" y="69"/>
      <point x="69" y="-6"/>
      <point x="173" y="-6" type="curve" smooth="yes"/>
      <point x="236" y="-6"/>
      <point x="294" y="24"/>
      <point x="342" y="80" type="curve"/>
      <point x="325" y="0" type="line"/>
      <point x="403" y="0" type="line"/>
      <point x="325" y="-47"/>
      <point x="287" y="-97"/>
      <point x="287" y="-153" type="curve" smooth="yes"/>
      <point x="287" y="-201"/>
      <point x="321" y="-231"/>
    </contour>
  </outline>
</glyph>
<glyph name="dotlessj" format="2">
  <advance width="600"/>
  <unicode hex="0237"/>
  <anchor x="447" y="516" name="top"/>
  <outline>
    <contour>
      <point x="165" y="-219" type="curve" smooth="yes"/>
      <point x="300" y="-219"/>
      <point x="383" y="-152"/>
      <point x="411" y="-19" type="curve" smooth="yes"/>
      <point x="526" y="516" type="line"/>
      <point x="129" y="516" type="line"/>
      <point x="102" y="391" type="line"/>
      <point x="337" y="391" type="line"/>
      <point x="256" y="19" type="line" smooth="yes"/>
      <point x="240" y="-54"/>
      <point x="214" y="-80"/>
      <point x="157" y="-80" type="curve" smooth="yes"/>
      <point x="118" y="-80"/>
      <point x="67" y="-67"/>
      <point x="7" y="-43" type="curve"/>
      <point x="-21" y="-177" type="line"/>
      <point x="26" y="-203"/>
      <point x="98" y="-219"/>
    </contour>
  </outline>
</glyph>
<glyph name="uni02BB" format="2">
  <advance width="600"/>
  <unicode hex="02BB"/>
  <outline>
    <contour>
      <point x="522" y="750" type="line"/>
      <point x="408" y="750" type="line"/>
      <point x="223" y="446" type="line"/>
      <point x="398" y="446" type="line"/>
    </contour>
  </outline>
</glyph>
<glyph name="caron" format="2">
  <advance width="600"/>
  <unicode hex="02C7"/>
  <outline>
    <contour>
      <point x="294" y="604" type="line"/>
      <point x="447" y="604" type="line"/>
      <point x="602" y="755" type="line"/>
      <point x="476" y="755" type="line"/>
      <point x="380" y="673" type="line"/>
      <point x="316" y="755" type="line"/>
      <point x="198" y="755" type="line"/>
    </contour>
  </outline>
</glyph>
<glyph name="dotaccent" format="2">
  <advance width="600"/>
  <unicode hex="02D9"/>
  <outline>
    <contour>
      <point x="373" y="595" type="curve" smooth="yes"/>
      <point x="427" y="595"/>
      <point x="472" y="640"/>
      <point x="472" y="693" type="curve" smooth="yes"/>
      <point x="472" y="738"/>
      <point x="436" y="773"/>
      <point x="391" y="773" type="curve" smooth="yes"/>
      <point x="337" y="773"/>
      <point x="292" y="728"/>
      <point x="292" y="675" type="curve" smooth="yes"/>
      <point x="292" y="630"/>
      <point x="328" y="595"/>
    </contour>
  </outline>
</glyph>
<glyph name="uni2015" format="2">
  <advance width="600"/>
  <unicode hex="2015"/>
  <outline>
    <contour>
      <point x="-8" y="219" type="line"/>
      <point x="592" y="219" type="line"/>
      <point x="620" y="354" type="line"/>
      <point x="20" y="354" type="line"/>
    </contour>
  </outline>
</glyph>
<glyph name="quotedblleft" format="2">
  <advance width="600"/>
  <unicode hex="201C"/>
  <outline>
    <contour>
      <point x="396" y="750" type="line"/>
      <point x="282" y="750" type="line"/>
      <point x="97" y="446" type="line"/>
      <point x="272" y="446" type="line"/>
    </contour>
    <contour>
      <point x="625" y="750" type="line"/>
      <point x="511" y="750" type="line"/>
      <point x="326" y="446" type="line"/>
      <point x="501" y="446" type="line"/>
    </contour>
  </outline>
</glyph>
<glyph name="daggerdbl" format="2">
  <advance width="600"/>
  <unicode hex="2021"/>
  <outline>
    <contour>
      <point x="184" y="0" type="line"/>
      <point x="307" y="0" type="line"/>
      <point x="346" y="184" type="line"/>
      <point x="473" y="184" type="line"/>
      <point x="496" y="293" type="line"/>
      <point x="369" y="293" type="line"/>
      <point x="394" y="407" type="line"/>
      <point x="521" y="407" type="line"/>
      <point x="544" y="516" type="line"/>
      <point x="417" y="516" type="line"/>
      <point x="456" y="700" type="line"/>
      <point x="333" y="700" type="line"/>
      <point x="294" y="516" type="line"/>
      <point x="166" y="516" type="line"/>
      <point x="143" y="407" type="line"/>
      <point x="271" y="407" type="line"/>
      <point x="246" y="293" type="line"/>
      <point x="118" y="293" type="line"/>
      <point x="95" y="184" type="line"/>
      <point x="223" y="184" type="line"/>
    </contour>
  </outline>
</glyph>
<glyph name="bullet" format="2">
  <advance width="600"/>
  <unicode hex="2022"/>
  <outline>
    <contour>
      <point x="306" y="202" type="curve" smooth="yes"/>
      <point x="374" y="202"/>
      <point x="434" y="266"/>
      <point x="434" y="338" type="curve" smooth="yes"/>
      <point x="434" y="398"/>
      <point x="382" y="445"/>
      <point x="325" y="445" type="curve" smooth="yes"/>
      <point x="254" y="445"/>
      <point x="194" y="383"/>
      <point x="194" y="309" type="curve" smooth="yes"/>
      <point x="194" y="249"/>
      <point x="247" y="202"/>
    </contour>
  </outline>
</glyph>
<glyph name="perthousand" format="2">
  <advance width="600"/>
  <unicode hex="2030"/>
  <outline>
    <contour>
      <point x="261" y="60" type="curve" smooth="yes"/>
      <point x="249" y="60"/>
      <point x="242" y="73"/>
      <point x="242" y="94" type="curve" smooth="yes"/>
      <point x="242" y="145"/>
      <point x="262" y="191"/>
      <point x="285" y="191" type="curve" smooth="yes"/>
      <point x="297" y="191"/>
      <point x="304" y="178"/>
      <point x="304" y="157" type="curve" smooth="yes"/>
      <point x="304" y="106"/>
      <point x="284" y="60"/>
    </contour>
    <contour>
      <point x="256" y="-3" type="curve" smooth="yes"/>
      <point x="318" y="-3"/>
      <point x="365" y="67"/>
      <point x="365" y="158" type="curve" smooth="yes"/>
      <point x="365" y="218"/>
      <point x="337" y="254"/>
      <point x="290" y="254" type="curve" smooth="yes"/>
      <point x="228" y="254"/>
      <point x="181" y="184"/>
      <point x="181" y="93" type="curve" smooth="yes"/>
      <point x="181" y="33"/>
      <point x="209" y="-3"/>
    </contour>
    <contour>
      <point x="-19" y="0" type="line"/>
      <point x="58" y="0" type="line"/>
      <point x="456" y="700" type="line"/>
      <point x="379" y="700" type="line"/>
    </contour>
    <contour>
      <point x="148" y="448" type="curve" smooth="yes"/>
      <point x="210" y="448"/>
      <point x="257" y="518"/>
      <point x="257" y="609" type="curve" smooth="yes"/>
      <point x="257" y="669"/>
      <point x="229" y="705"/>
      <point x="182" y="705" type="curve" smooth="yes"/>
      <point x="120" y="705"/>
      <point x="73" y="635"/>
      <point x="73" y="544" type="curve" smooth="yes"/>
      <point x="73" y="484"/>
      <point x="101" y="448"/>
    </contour>
    <contour>
      <point x="457" y="-3" type="curve" smooth="yes"/>
      <point x="519" y="-3"/>
      <point x="566" y="67"/>
      <point x="566" y="158" type="curve" smooth="yes"/>
      <point x="566" y="218"/>
      <point x="538" y="254"/>
      <point x="491" y="254" type="curve" smooth="yes"/>
      <point x="429" y="254"/>
      <point x="382" y="184"/>
      <point x="382" y="93" type="curve" smooth="yes"/>
      <point x="382" y="33"/>
      <point x="410" y="-3"/>
    </contour>
    <contour>
      <point x="134" y="545" type="curve" smooth="yes"/>
      <point x="134" y="596"/>
      <point x="154" y="642"/>
      <point x="177" y="642" type="curve" smooth="yes"/>
      <point x="189" y="642"/>
      <point x="196" y="629"/>
      <point x="196" y="608" type="curve" smooth="yes"/>
      <point x="196" y="557"/>
      <point x="176" y="511"/>
      <point x="153" y="511" type="curve" smooth="yes"/>
      <point x="141" y="511"/>
      <point x="134" y="524"/>
    </contour>
    <contour>
      <point x="462" y="60" type="curve" smooth="yes"/>
      <point x="450" y="60"/>
      <point x="443" y="73"/>
      <point x="443" y="94" type="curve" smooth="yes"/>
      <point x="443" y="145"/>
      <point x="463" y="191"/>
      <point x="486" y="191" type="curve" smooth="yes"/>
      <point x="498" y="191"/>
      <point x="505" y="178"/>
      <point x="505" y="157" type="curve" smooth="yes"/>
      <point x="505" y="106"/>
      <point x="485" y="60"/>
    </contour>
  </outline>
</glyph>
<glyph name="guilsinglright" format="2">
  <advance width="600"/>
  <unicode hex="203A"/>
  <outline>
    <contour>
      <point x="322" y="516" type="line"/>
      <point x="163" y="516" type="line"/>
      <point x="337" y="256" type="line"/>
      <point x="56" y="0" type="line"/>
      <point x="212" y="0" type="line"/>
      <point x="501" y="257" type="line"/>
    </contour>
  </outline>
</glyph>
<glyph name="fraction" format="2">
  <advance width="600"/>
  <unicode hex="2044"/>
  <outline>
    <contour>
      <point x="-11" y="0" type="line"/>
      <point x="89" y="0" type="line"/>
      <point x="615" y="700" type="line"/>
      <point x="515" y="700" type="line"/>
    </contour>
  </outline>
</glyph>
<glyph name="uni2079" format="2">
  <advance width="600"/>
  <unicode hex="2079"/>
  <outline>
    <contour>
      <point x="377" y="705" type="curve" smooth="yes"/>
      <point x="299" y="705"/>
      <point x="236" y="647"/>
      <point x="236" y="576" type="curve" smooth="yes"/>
      <point x="236" y="524"/>
      <point x="275" y="488"/>
      <point x="331" y="488" type="curve" smooth="yes"/>
      <point x="366" y="488"/>
      <point x="398" y="503"/>
      <point x="421" y="529" type="curve"/>
      <point x="412" y="469"/>
      <point x="374" y="425"/>
      <point x="330" y="425" type="curve" smooth="yes"/>
      <point x="303" y="425"/>
      <point x="279" y="436"/>
      <point x="260" y="456" type="curve"/>
      <point x="205" y="391" type="line"/>
      <point x="236" y="359"/>
      <point x="272" y="344"/>
      <point x="315" y="344" type="curve" smooth="yes"/>
      <point x="424" y="344"/>
      <point x="514" y="441"/>
      <point x="514" y="559" type="curve" smooth="yes"/>
      <point x="514" y="650"/>
      <point x="462" y="705"/>
    </contour>
    <contour>
      <point x="369" y="625" type="curve" smooth="yes"/>
      <point x="398" y="625"/>
      <point x="418" y="606"/>
      <point x="423" y="575" type="curve"/>
      <point x="405" y="562"/>
      <point x="385" y="555"/>
      <point x="366" y="555" type="curve" smooth="yes"/>
      <point x="342" y="555"/>
      <point x="325" y="569"/>
      <point x="325" y="588" type="curve" smooth="yes"/>
      <point x="325" y="609"/>
      <point x="344" y="625"/>
    </contour>
  </outline>
</glyph>
<glyph name="uni2080" format="2">
  <advance width="600"/>
  <unicode hex="2080"/>
  <outline>
    <contour>
      <point x="257" y="-5" type="curve" smooth="yes"/>
      <point x="359" y="-5"/>
      <point x="440" y="91"/>
      <point x="440" y="214" type="curve" smooth="yes"/>
      <point x="440" y="301"/>
      <point x="388" y="356"/>
      <point x="307" y="356" type="curve" smooth="yes"/>
      <point x="205" y="356"/>
      <point x="124" y="260"/>
      <point x="124" y="137" type="curve" smooth="yes"/>
      <point x="124" y="50"/>
      <point x="175" y="-5"/>
    </contour>
    <contour>
      <point x="266" y="77" type="curve" smooth="yes"/>
      <point x="233" y="77"/>
      <point x="214" y="102"/>
      <point x="214" y="145" type="curve" smooth="yes"/>
      <point x="214" y="216"/>
      <point x="251" y="274"/>
      <point x="298" y="274" type="curve" smooth="yes"/>
      <point x="330" y="274"/>
      <point x="349" y="248"/>
      <point x="349" y="206" type="curve" smooth="yes"/>
      <point x="349" y="134"/>
      <point x="312" y="77"/>
    </contour>
  </outline>
</glyph>
<glyph name="uni2081" format="2">
  <advance width="600"/>
  <unicode hex="2081"/>
  <outline>
    <contour>
      <point x="231" y="0" type="line"/>
      <point x="323" y="0" type="line"/>
      <point x="398" y="350" type="line"/>
      <point x="340" y="350" type="line"/>
      <point x="224" y="305" type="line"/>
      <point x="206" y="224" type="line"/>
      <point x="285" y="254" type="line"/>
    </contour>
  </outline>
</glyph>
<glyph name="uni2083" format="2">
  <advance width="600"/>
  <unicode hex="2083"/>
  <outline>
    <contour>
      <point x="254" y="-5" type="curve" smooth="yes"/>
      <point x="336" y="-5"/>
      <point x="402" y="45"/>
      <point x="402" y="108" type="curve" smooth="yes"/>
      <point x="402" y="139"/>
      <point x="384" y="161"/>
      <point x="349" y="172" type="curve"/>
      <point x="396" y="186"/>
      <point x="430" y="221"/>
      <point x="430" y="257" type="curve" smooth="yes"/>
      <point x="430" y="316"/>
      <point x="378" y="357"/>
      <point x="304" y="357" type="curve" smooth="yes"/>
      <point x="257" y="357"/>
      <point x="206" y="339"/>
      <point x="164" y="307" type="curve"/>
      <point x="209" y="242" type="line"/>
      <point x="241" y="264"/>
      <point x="267" y="274"/>
      <point x="290" y="274" type="curve" smooth="yes"/>
      <point x="314" y="274"/>
      <point x="333" y="259"/>
      <point x="333" y="239" type="curve" smooth="yes"/>
      <point x="333" y="221"/>
      <point x="313" y="209"/>
      <point x="283" y="209" type="curve" smooth="yes"/>
      <point x="253" y="209" type="line"/>
      <point x="237" y="134" type="line"/>
      <point x="278" y="134" type="line" smooth="yes"/>
      <point x="299" y="134"/>
      <point x="311" y="124"/>
      <point x="311" y="106" type="curve" smooth="yes"/>
      <point x="311" y="89"/>
      <point x="290" y="77"/>
      <point x="261" y="77" type="curve" smooth="yes"/>
      <point x="227" y="77"/>
      <point x="201" y="89"/>
      <point x="178" y="116" type="curve"/>
      <point x="115" y="57" type="line"/>
      <point x="142" y="17"/>
      <point x="192" y="-5"/>
    </contour>
  </outline>
</glyph>
<glyph name="uni2086" format="2">
  <advance width="600"/>
  <unicode hex="2086"/>
  <outline>
    <contour>
      <point x="268" y="-6" type="curve" smooth="yes"/>
      <point x="346" y="-6"/>
      <point x="409" y="52"/>
      <point x="409" y="123" type="curve" smooth="yes"/>
      <point x="409" y="175"/>
      <point x="370" y="211"/>
      <point x="314" y="211" type="curve" smooth="yes"/>
      <point x="279" y="211"/>
      <point x="247" y="196"/>
      <point x="224" y="170" type="curve"/>
      <point x="233" y="230"/>
      <point x="271" y="274"/>
      <point x="315" y="274" type="curve" smooth="yes"/>
      <point x="342" y="274"/>
      <point x="366" y="263"/>
      <point x="385" y="243" type="curve"/>
      <point x="440" y="308" type="line"/>
      <point x="409" y="340"/>
      <point x="373" y="355"/>
      <point x="330" y="355" type="curve" smooth="yes"/>
      <point x="221" y="355"/>
      <point x="131" y="258"/>
      <point x="131" y="140" type="curve" smooth="yes"/>
      <point x="131" y="49"/>
      <point x="183" y="-6"/>
    </contour>
    <contour>
      <point x="276" y="74" type="curve" smooth="yes"/>
      <point x="247" y="74"/>
      <point x="227" y="93"/>
      <point x="222" y="124" type="curve"/>
      <point x="240" y="137"/>
      <point x="260" y="144"/>
      <point x="279" y="144" type="curve" smooth="yes"/>
      <point x="303" y="144"/>
      <point x="320" y="130"/>
      <point x="320" y="111" type="curve" smooth="yes"/>
      <point x="320" y="90"/>
      <point x="301" y="74"/>
    </contour>
  </outline>
</glyph>
<glyph name="trademark" format="2">
  <advance width="600"/>
  <unicode hex="2122"/>
  <outline>
    <contour>
      <point x="302" y="411" type="line"/>
      <point x="369" y="411" type="line"/>
      <point x="411" y="607" type="line"/>
      <point x="456" y="428" type="line"/>
      <point x="579" y="607" type="line"/>
      <point x="537" y="411" type="line"/>
      <point x="604" y="411" type="line"/>
      <point x="666" y="700" type="line"/>
      <point x="570" y="700" type="line"/>
      <point x="483" y="570" type="line"/>
      <point x="452" y="700" type="line"/>
      <point x="364" y="700" type="line"/>
    </contour>
    <contour>
      <point x="123" y="411" type="line"/>
      <point x="201" y="411" type="line"/>
      <point x="248" y="633" type="line"/>
      <point x="324" y="633" type="line"/>
      <point x="339" y="700" type="line"/>
      <point x="109" y="700" type="line"/>
      <point x="94" y="633" type="line"/>
      <point x="170" y="633" type="line"/>
    </contour>
  </outline>
</glyph>
<glyph name="uni2193" format="2">
  <advance width="600"/>
  <unicode hex="2193"/>
  <outline>
    <contour>
      <point x="386" y="700" type="line"/>
      <point x="235" y="700" type="line"/>
      <point x="235" y="228" type="line"/>
      <point x="101" y="391" type="line"/>
      <point x="6" y="306" type="line"/>
      <point x="310" y="-50" type="line"/>
      <point x="615" y="307" type="line"/>
      <point x="522" y="389" type="line"/>
      <point x="386" y="224" type="line"/>
    </contour>
  </outline>
</glyph>
<glyph name="uni2215" format="2">
  <advance width="600"/>
  <unicode hex="2215"/>
  <outline>
    <contour>
      <point x="-109" y="0" type="line"/>
      <point x="5" y="0" type="line"/>
      <point x="552" y="700" type="line"/>
      <point x="437" y="700" type="line"/>
    </contour>
  </outline>
</glyph>
<glyph name="notequal" format="2">
  <advance width="600"/>
  <unicode hex="2260"/>
  <outline>
    <contour>
      <point x="39" y="81" type="line"/>
      <point x="159" y="81" type="line"/>
      <point x="245" y="187" type="line"/>
      <point x="510" y="187" type="line"/>
      <point x="536" y="311" type="line"/>
      <point x="345" y="311" type="line"/>
      <point x="408" y="389" type="line"/>
      <point x="553" y="389" type="line"/>
      <point x="579" y="513" type="line"/>
      <point x="508" y="513" type="line"/>
      <point x="595" y="621" type="line"/>
      <point x="477" y="621" type="line"/>
      <point x="389" y="513" type="line"/>
      <point x="129" y="513" type="line"/>
      <point x="103" y="389" type="line"/>
      <point x="289" y="389" type="line"/>
      <point x="226" y="311" type="line"/>
      <point x="86" y="311" type="line"/>
      <point x="60" y="187" type="line"/>
      <point x="125" y="187" type="line"/>
    </contour>
  </outline>
</glyph>
<glyph name="fi" format="2">
  <advance width="600"/>
  <unicode hex="FB01"/>
  <outline>
    <contour>
      <point x="39" y="0" type="line"/>
      <point x="191" y="0" type="line"/>
      <point x="274" y="391" type="line"/>
      <point x="384" y="391" type="line"/>
      <point x="411" y="516" type="line"/>
      <point x="301" y="516" type="line"/>
      <point x="314" y="581" type="line" smooth="yes"/>
      <point x="323" y="619"/>
      <point x="345" y="637"/>
      <point x="384" y="637" type="curve" smooth="yes"/>
      <point x="399" y="637"/>
      <point x="412" y="635"/>
      <point x="435" y="631" type="curve"/>
      <point x="462" y="760" type="line"/>
      <point x="445" y="765"/>
      <point x="414" y="770"/>
      <point x="389" y="770" type="curve" smooth="yes"/>
      <point x="268" y="770"/>
      <point x="188" y="703"/>
      <point x="162" y="580" type="curve" smooth="yes"/>
      <point x="149" y="516" type="line"/>
      <point x="62" y="516" type="line"/>
      <point x="35" y="391" type="line"/>
      <point x="122" y="391" type="line"/>
    </contour>
    <contour>
      <point x="560" y="598" type="curve" smooth="yes"/>
      <point x="615" y="598"/>
      <point x="660" y="643"/>
      <point x="660" y="698" type="curve" smooth="yes"/>
      <point x="660" y="742"/>
      <point x="625" y="776"/>
      <point x="581" y="776" type="curve" smooth="yes"/>
      <point x="529" y="776"/>
      <point x="482" y="729"/>
      <point x="482" y="675" type="curve" smooth="yes"/>
      <point x="482" y="631"/>
      <point x="515" y="598"/>
    </contour>
    <contour>
      <point x="348" y="0" type="line"/>
      <point x="500" y="0" type="line"/>
      <point x="610" y="516" type="line"/>
      <point x="458" y="516" type="line"/>
    </contour>
  </outline>
</glyph>
<glyph name=".notdef" format="2">
  <advance width="600"/>
  <outline>
    <contour>
      <point x="100" y="-100" type="line"/>
      <point x="494" y="-100" type="line"/>
      <point x="494" y="750" type="line"/>
      <point x="100" y="750" type="line"/>
    </contour>
  </outline>
</glyph>
<glyph name="acutecomb" format="2">
  <anchor x="356" y="516" name="_top"/>
  <outline>
    <contour>
      <point x="281" y="601" type="line"/>
      <point x="425" y="601" type="line"/>
      <point x="642" y="747" type="line"/>
      <point x="448" y="747" type="line"/>
    </contour>
  </outline>
</glyph>
<glyph name="caronSlovak" format="2">
  <advance width="600"/>
  <outline>
    <contour>
      <point x="278" y="498" type="line"/>
      <point x="367" y="498" type="line"/>
      <point x="467" y="737" type="line"/>
      <point x="332" y="712" type="line"/>
    </contour>
  </outline>
</glyph>
<glyph name="g.alt" format="2">
  <advance width="600"/>
  <anchor x="316" y="516" name="top"/>
  <outline>
    <contour>
      <point x="226" y="-219" type="curve" smooth="yes"/>
      <point x="408" y="-219"/>
      <point x="528" y="-147"/>
      <point x="528" y="-38" type="curve" smooth="yes"/>
      <point x="528" y="25"/>
      <point x="475" y="66"/>
      <point x="379" y="77" type="curve" smooth="yes"/>
      <point x="198" y="94" type="line" smooth="yes"/>
      <point x="168" y="97"/>
      <point x="153" y="106"/>
      <point x="153" y="121" type="curve" smooth="yes"/>
      <point x="153" y="138"/>
      <point x="165" y="150"/>
      <point x="186" y="156" type="curve"/>
      <point x="215" y="147"/>
      <point x="247" y="142"/>
      <point x="280" y="142" type="curve" smooth="yes"/>
      <point x="424" y="142"/>
      <point x="536" y="232"/>
      <point x="536" y="347" type="curve" smooth="yes"/>
      <point x="536" y="371"/>
      <point x="531" y="393"/>
      <point x="521" y="414" type="curve"/>
      <point x="536" y="421"/>
      <point x="552" y="424"/>
      <point x="568" y="424" type="curve" smooth="yes"/>
      <point x="590" y="424"/>
      <point x="616" y="419"/>
      <point x="632" y="412" type="curve"/>
      <point x="658" y="538" type="line"/>
      <point x="644" y="544"/>
      <point x="636" y="545"/>
      <point x="621" y="545" type="curve" smooth="yes"/>
      <point x="573" y="545"/>
      <point x="534" y="514"/>
      <point x="498" y="448" type="curve"/>
      <point x="457" y="496"/>
      <point x="387" y="524"/>
      <point x="307" y="524" type="curve" smooth="yes"/>
      <point x="167" y="524"/>
      <point x="53" y="431"/>
      <point x="53" y="316" type="curve" smooth="yes"/>
      <point x="53" y="255"/>
      <point x="89" y="201"/>
      <point x="152" y="170" type="curve"/>
      <point x="70" y="160"/>
      <point x="17" y="114"/>
      <point x="17" y="53" type="curve" smooth="yes"/>
      <point x="17" y="24"/>
      <point x="32" y="1"/>
      <point x="61" y="-15" type="curve"/>
      <point x="-21" y="-25"/>
      <point x="-68" y="-58"/>
      <point x="-68" y="-104" type="curve" smooth="yes"/>
      <point x="-68" y="-174"/>
      <point x="48" y="-219"/>
    </contour>
    <contour>
      <point x="285" y="248" type="curve" smooth="yes"/>
      <point x="235" y="248"/>
      <point x="201" y="279"/>
      <point x="201" y="323" type="curve" smooth="yes"/>
      <point x="201" y="374"/>
      <point x="245" y="414"/>
      <point x="302" y="414" type="curve" smooth="yes"/>
      <point x="351" y="414"/>
      <point x="386" y="383"/>
      <point x="386" y="340" type="curve" smooth="yes"/>
      <point x="386" y="289"/>
      <point x="341" y="248"/>
    </contour>
    <contour>
      <point x="236" y="-122" type="curve" smooth="yes"/>
      <point x="137" y="-122"/>
      <point x="77" y="-102"/>
      <point x="77" y="-69" type="curve" smooth="yes"/>
      <point x="77" y="-53"/>
      <point x="87" y="-40"/>
      <point x="104" y="-32" type="curve"/>
      <point x="123" y="-38"/>
      <point x="145" y="-42"/>
      <point x="170" y="-44" type="curve" smooth="yes"/>
      <point x="327" y="-58" type="line" smooth="yes"/>
      <point x="350" y="-61"/>
      <point x="362" y="-68"/>
      <point x="362" y="-79" type="curve" smooth="yes"/>
      <point x="362" y="-105"/>
      <point x="312" y="-122"/>
    </contour>
  </outline>
</glyph>
<glyph name="reversequoteleft" format="2">
  <advance width="600"/>
  <outline>
    <contour>
      <point x="509" y="446" type="line"/>
      <point x="385" y="750" type="line"/>
      <point x="210" y="750" type="line"/>
      <point x="395" y="446" type="line"/>
    </contour>
  </outline>
</glyph>
<glyph name="uni0304" format="2">
  <anchor x="356" y="516" name="_top"/>
  <outline>
    <contour>
      <point x="216" y="626" type="line"/>
      <point x="538" y="626" type="line"/>
      <point x="560" y="726" type="line"/>
      <point x="238" y="726" type="line"/>
    </contour>
  </outline>
</glyph>
<glyph name="uni030A" format="2">
  <anchor x="356" y="516" name="_top"/>
  <outline>
    <contour>
      <point x="376" y="587" type="curve" smooth="yes"/>
      <point x="448" y="587"/>
      <point x="513" y="652"/>
      <point x="513" y="724" type="curve" smooth="yes"/>
      <point x="513" y="787"/>
      <point x="465" y="834"/>
      <point x="399" y="834" type="curve" smooth="yes"/>
      <point x="327" y="834"/>
      <point x="262" y="769"/>
      <point x="262" y="697" type="curve" smooth="yes"/>
      <point x="262" y="634"/>
      <point x="310" y="587"/>
    </contour>
    <contour>
      <point x="381" y="651" type="curve" smooth="yes"/>
      <point x="351" y="651"/>
      <point x="329" y="673"/>
      <point x="329" y="704" type="curve" smooth="yes"/>
      <point x="329" y="740"/>
      <point x="358" y="770"/>
      <point x="394" y="770" type="curve" smooth="yes"/>
      <point x="424" y="770"/>
      <point x="446" y="748"/>
      <point x="446" y="717" type="curve" smooth="yes"/>
      <point x="446" y="681"/>
      <point x="417" y="651"/>
    </contour>
  </outline>
</glyph>
